<svg width="226" height="61" viewBox="0 0 226 61" fill="none" xmlns="http://www.w3.org/2000/svg">
<path d="M0 10C0 4.47715 4.47715 0 10 0H216C221.523 0 226 4.47715 226 10V11C226 38.6142 203.614 61 176 61H10C4.47716 61 0 56.5228 0 51V10Z" fill="url(#paint0_linear_1966_615)"/>
<path d="M27.688 28.112C27.688 29.04 27.368 29.8133 26.728 30.432C26.0987 31.04 25.1333 31.344 23.832 31.344H21.688V36H20.232V24.848H23.832C25.0907 24.848 26.0453 25.152 26.696 25.76C27.3573 26.368 27.688 27.152 27.688 28.112ZM23.832 30.144C24.6427 30.144 25.24 29.968 25.624 29.616C26.008 29.264 26.2 28.7627 26.2 28.112C26.2 26.736 25.4107 26.048 23.832 26.048H21.688V30.144H23.832ZM39.0976 31.28C39.0976 31.5573 39.0816 31.8507 39.0496 32.16H32.0416C32.095 33.024 32.3883 33.7013 32.9216 34.192C33.4656 34.672 34.1216 34.912 34.8896 34.912C35.519 34.912 36.0416 34.768 36.4576 34.48C36.8843 34.1813 37.183 33.7867 37.3536 33.296H38.9216C38.687 34.1387 38.2176 34.8267 37.5136 35.36C36.8096 35.8827 35.935 36.144 34.8896 36.144C34.0576 36.144 33.311 35.9573 32.6496 35.584C31.999 35.2107 31.487 34.6827 31.1136 34C30.7403 33.3067 30.5536 32.5067 30.5536 31.6C30.5536 30.6933 30.735 29.8987 31.0976 29.216C31.4603 28.5333 31.967 28.0107 32.6176 27.648C33.279 27.2747 34.0363 27.088 34.8896 27.088C35.7216 27.088 36.4576 27.2693 37.0976 27.632C37.7376 27.9947 38.2283 28.496 38.5696 29.136C38.9216 29.7653 39.0976 30.48 39.0976 31.28ZM37.5936 30.976C37.5936 30.4213 37.471 29.9467 37.2256 29.552C36.9803 29.1467 36.6443 28.8427 36.2176 28.64C35.8016 28.4267 35.3376 28.32 34.8256 28.32C34.0896 28.32 33.4603 28.5547 32.9376 29.024C32.4256 29.4933 32.1323 30.144 32.0576 30.976H37.5936ZM45.7235 36.144C45.0515 36.144 44.4488 36.032 43.9155 35.808C43.3822 35.5733 42.9608 35.2533 42.6515 34.848C42.3422 34.432 42.1715 33.9573 42.1395 33.424H43.6435C43.6862 33.8613 43.8888 34.2187 44.2515 34.496C44.6248 34.7733 45.1102 34.912 45.7075 34.912C46.2622 34.912 46.6995 34.7893 47.0195 34.544C47.3395 34.2987 47.4995 33.9893 47.4995 33.616C47.4995 33.232 47.3288 32.9493 46.9875 32.768C46.6462 32.576 46.1182 32.3893 45.4035 32.208C44.7528 32.0373 44.2195 31.8667 43.8035 31.696C43.3982 31.5147 43.0462 31.2533 42.7475 30.912C42.4595 30.56 42.3155 30.1013 42.3155 29.536C42.3155 29.088 42.4488 28.6773 42.7155 28.304C42.9822 27.9307 43.3608 27.6373 43.8515 27.424C44.3422 27.2 44.9022 27.088 45.5315 27.088C46.5022 27.088 47.2862 27.3333 47.8835 27.824C48.4808 28.3147 48.8008 28.9867 48.8435 29.84H47.3875C47.3555 29.3813 47.1688 29.0133 46.8275 28.736C46.4968 28.4587 46.0488 28.32 45.4835 28.32C44.9608 28.32 44.5448 28.432 44.2355 28.656C43.9262 28.88 43.7715 29.1733 43.7715 29.536C43.7715 29.824 43.8622 30.064 44.0435 30.256C44.2355 30.4373 44.4702 30.5867 44.7475 30.704C45.0355 30.8107 45.4302 30.9333 45.9315 31.072C46.5608 31.2427 47.0728 31.4133 47.4675 31.584C47.8622 31.744 48.1982 31.9893 48.4755 32.32C48.7635 32.6507 48.9128 33.0827 48.9235 33.616C48.9235 34.096 48.7902 34.528 48.5235 34.912C48.2568 35.296 47.8782 35.6 47.3875 35.824C46.9075 36.0373 46.3528 36.144 45.7235 36.144ZM52.0349 31.584C52.0349 30.688 52.2162 29.904 52.5789 29.232C52.9415 28.5493 53.4375 28.0213 54.0669 27.648C54.7069 27.2747 55.4162 27.088 56.1949 27.088C56.9629 27.088 57.6295 27.2533 58.1949 27.584C58.7602 27.9147 59.1815 28.3307 59.4589 28.832V27.232H60.9309V36H59.4589V34.368C59.1709 34.88 58.7389 35.3067 58.1629 35.648C57.5975 35.9787 56.9362 36.144 56.1789 36.144C55.4002 36.144 54.6962 35.952 54.0669 35.568C53.4375 35.184 52.9415 34.6453 52.5789 33.952C52.2162 33.2587 52.0349 32.4693 52.0349 31.584ZM59.4589 31.6C59.4589 30.9387 59.3255 30.3627 59.0589 29.872C58.7922 29.3813 58.4295 29.008 57.9709 28.752C57.5229 28.4853 57.0269 28.352 56.4829 28.352C55.9389 28.352 55.4429 28.48 54.9949 28.736C54.5469 28.992 54.1895 29.3653 53.9229 29.856C53.6562 30.3467 53.5229 30.9227 53.5229 31.584C53.5229 32.256 53.6562 32.8427 53.9229 33.344C54.1895 33.8347 54.5469 34.2133 54.9949 34.48C55.4429 34.736 55.9389 34.864 56.4829 34.864C57.0269 34.864 57.5229 34.736 57.9709 34.48C58.4295 34.2133 58.7922 33.8347 59.0589 33.344C59.3255 32.8427 59.4589 32.2613 59.4589 31.6ZM69.2634 27.072C70.33 27.072 71.194 27.3973 71.8554 28.048C72.5167 28.688 72.8474 29.616 72.8474 30.832V36H71.4074V31.04C71.4074 30.1653 71.1887 29.4987 70.7514 29.04C70.314 28.5707 69.7167 28.336 68.9594 28.336C68.1914 28.336 67.578 28.576 67.1194 29.056C66.6714 29.536 66.4474 30.2347 66.4474 31.152V36H64.9914V27.232H66.4474V28.48C66.7354 28.032 67.1247 27.6853 67.6154 27.44C68.1167 27.1947 68.666 27.072 69.2634 27.072ZM86.2274 36.112C85.4914 36.112 84.83 35.984 84.2434 35.728C83.6674 35.4613 83.214 35.0987 82.8834 34.64C82.5527 34.1707 82.382 33.632 82.3714 33.024H83.9234C83.9767 33.5467 84.19 33.9893 84.5634 34.352C84.9474 34.704 85.502 34.88 86.2274 34.88C86.9207 34.88 87.4647 34.7093 87.8594 34.368C88.2647 34.016 88.4674 33.568 88.4674 33.024C88.4674 32.5973 88.35 32.2507 88.1154 31.984C87.8807 31.7173 87.5874 31.5147 87.2354 31.376C86.8834 31.2373 86.4087 31.088 85.8114 30.928C85.0754 30.736 84.4834 30.544 84.0354 30.352C83.598 30.16 83.2194 29.8613 82.8994 29.456C82.59 29.04 82.4354 28.4853 82.4354 27.792C82.4354 27.184 82.59 26.6453 82.8994 26.176C83.2087 25.7067 83.6407 25.344 84.1954 25.088C84.7607 24.832 85.406 24.704 86.1314 24.704C87.1767 24.704 88.03 24.9653 88.6914 25.488C89.3634 26.0107 89.742 26.704 89.8274 27.568H88.2274C88.174 27.1413 87.95 26.768 87.5554 26.448C87.1607 26.1173 86.638 25.952 85.9874 25.952C85.3794 25.952 84.8834 26.112 84.4994 26.432C84.1154 26.7413 83.9234 27.1787 83.9234 27.744C83.9234 28.1493 84.0354 28.48 84.2594 28.736C84.494 28.992 84.7767 29.1893 85.1074 29.328C85.4487 29.456 85.9234 29.6053 86.5314 29.776C87.2674 29.9787 87.8594 30.1813 88.3074 30.384C88.7554 30.576 89.1394 30.88 89.4594 31.296C89.7794 31.7013 89.9394 32.256 89.9394 32.96C89.9394 33.504 89.7954 34.016 89.5074 34.496C89.2194 34.976 88.7927 35.3653 88.2274 35.664C87.662 35.9627 86.9954 36.112 86.2274 36.112ZM101.682 31.28C101.682 31.5573 101.666 31.8507 101.634 32.16H94.626C94.6793 33.024 94.9727 33.7013 95.506 34.192C96.05 34.672 96.706 34.912 97.474 34.912C98.1033 34.912 98.626 34.768 99.042 34.48C99.4687 34.1813 99.7673 33.7867 99.938 33.296H101.506C101.271 34.1387 100.802 34.8267 100.098 35.36C99.394 35.8827 98.5193 36.144 97.474 36.144C96.642 36.144 95.8953 35.9573 95.234 35.584C94.5833 35.2107 94.0713 34.6827 93.698 34C93.3247 33.3067 93.138 32.5067 93.138 31.6C93.138 30.6933 93.3193 29.8987 93.682 29.216C94.0447 28.5333 94.5513 28.0107 95.202 27.648C95.8633 27.2747 96.6207 27.088 97.474 27.088C98.306 27.088 99.042 27.2693 99.682 27.632C100.322 27.9947 100.813 28.496 101.154 29.136C101.506 29.7653 101.682 30.48 101.682 31.28ZM100.178 30.976C100.178 30.4213 100.055 29.9467 99.81 29.552C99.5647 29.1467 99.2287 28.8427 98.802 28.64C98.386 28.4267 97.922 28.32 97.41 28.32C96.674 28.32 96.0447 28.5547 95.522 29.024C95.01 29.4933 94.7167 30.144 94.642 30.976H100.178ZM110.1 36L106.66 32.128V36H105.204V24.16H106.66V31.12L110.036 27.232H112.068L107.94 31.6L112.084 36H110.1ZM114.494 31.584C114.494 30.688 114.676 29.904 115.038 29.232C115.401 28.5493 115.897 28.0213 116.526 27.648C117.166 27.2747 117.876 27.088 118.654 27.088C119.422 27.088 120.089 27.2533 120.654 27.584C121.22 27.9147 121.641 28.3307 121.918 28.832V27.232H123.39V36H121.918V34.368C121.63 34.88 121.198 35.3067 120.622 35.648C120.057 35.9787 119.396 36.144 118.638 36.144C117.86 36.144 117.156 35.952 116.526 35.568C115.897 35.184 115.401 34.6453 115.038 33.952C114.676 33.2587 114.494 32.4693 114.494 31.584ZM121.918 31.6C121.918 30.9387 121.785 30.3627 121.518 29.872C121.252 29.3813 120.889 29.008 120.43 28.752C119.982 28.4853 119.486 28.352 118.942 28.352C118.398 28.352 117.902 28.48 117.454 28.736C117.006 28.992 116.649 29.3653 116.382 29.856C116.116 30.3467 115.982 30.9227 115.982 31.584C115.982 32.256 116.116 32.8427 116.382 33.344C116.649 33.8347 117.006 34.2133 117.454 34.48C117.902 34.736 118.398 34.864 118.942 34.864C119.486 34.864 119.982 34.736 120.43 34.48C120.889 34.2133 121.252 33.8347 121.518 33.344C121.785 32.8427 121.918 32.2613 121.918 31.6ZM128.907 28.656C129.163 28.1547 129.525 27.7653 129.995 27.488C130.475 27.2107 131.056 27.072 131.739 27.072V28.576H131.355C129.723 28.576 128.907 29.4613 128.907 31.232V36H127.451V27.232H128.907V28.656ZM134.475 31.584C134.475 30.688 134.657 29.904 135.019 29.232C135.382 28.5493 135.878 28.0213 136.507 27.648C137.147 27.2747 137.857 27.088 138.635 27.088C139.403 27.088 140.07 27.2533 140.635 27.584C141.201 27.9147 141.622 28.3307 141.899 28.832V27.232H143.371V36H141.899V34.368C141.611 34.88 141.179 35.3067 140.603 35.648C140.038 35.9787 139.377 36.144 138.619 36.144C137.841 36.144 137.137 35.952 136.507 35.568C135.878 35.184 135.382 34.6453 135.019 33.952C134.657 33.2587 134.475 32.4693 134.475 31.584ZM141.899 31.6C141.899 30.9387 141.766 30.3627 141.499 29.872C141.233 29.3813 140.87 29.008 140.411 28.752C139.963 28.4853 139.467 28.352 138.923 28.352C138.379 28.352 137.883 28.48 137.435 28.736C136.987 28.992 136.63 29.3653 136.363 29.856C136.097 30.3467 135.963 30.9227 135.963 31.584C135.963 32.256 136.097 32.8427 136.363 33.344C136.63 33.8347 136.987 34.2133 137.435 34.48C137.883 34.736 138.379 34.864 138.923 34.864C139.467 34.864 139.963 34.736 140.411 34.48C140.87 34.2133 141.233 33.8347 141.499 33.344C141.766 32.8427 141.899 32.2613 141.899 31.6ZM151.704 27.072C152.771 27.072 153.635 27.3973 154.296 28.048C154.957 28.688 155.288 29.616 155.288 30.832V36H153.848V31.04C153.848 30.1653 153.629 29.4987 153.192 29.04C152.755 28.5707 152.157 28.336 151.4 28.336C150.632 28.336 150.019 28.576 149.56 29.056C149.112 29.536 148.888 30.2347 148.888 31.152V36H147.432V27.232H148.888V28.48C149.176 28.032 149.565 27.6853 150.056 27.44C150.557 27.1947 151.107 27.072 151.704 27.072ZM162.882 27.088C163.64 27.088 164.301 27.2533 164.866 27.584C165.442 27.9147 165.869 28.3307 166.146 28.832V27.232H167.618V36.192C167.618 36.992 167.448 37.7013 167.106 38.32C166.765 38.9493 166.274 39.44 165.634 39.792C165.005 40.144 164.269 40.32 163.426 40.32C162.274 40.32 161.314 40.048 160.546 39.504C159.778 38.96 159.325 38.2187 159.186 37.28H160.626C160.786 37.8133 161.117 38.24 161.618 38.56C162.12 38.8907 162.722 39.056 163.426 39.056C164.226 39.056 164.877 38.8053 165.378 38.304C165.89 37.8027 166.146 37.0987 166.146 36.192V34.352C165.858 34.864 165.432 35.2907 164.866 35.632C164.301 35.9733 163.64 36.144 162.882 36.144C162.104 36.144 161.394 35.952 160.754 35.568C160.125 35.184 159.629 34.6453 159.266 33.952C158.904 33.2587 158.722 32.4693 158.722 31.584C158.722 30.688 158.904 29.904 159.266 29.232C159.629 28.5493 160.125 28.0213 160.754 27.648C161.394 27.2747 162.104 27.088 162.882 27.088ZM166.146 31.6C166.146 30.9387 166.013 30.3627 165.746 29.872C165.48 29.3813 165.117 29.008 164.658 28.752C164.21 28.4853 163.714 28.352 163.17 28.352C162.626 28.352 162.13 28.48 161.682 28.736C161.234 28.992 160.877 29.3653 160.61 29.856C160.344 30.3467 160.21 30.9227 160.21 31.584C160.21 32.256 160.344 32.8427 160.61 33.344C160.877 33.8347 161.234 34.2133 161.682 34.48C162.13 34.736 162.626 34.864 163.17 34.864C163.714 34.864 164.21 34.736 164.658 34.48C165.117 34.2133 165.48 33.8347 165.746 33.344C166.013 32.8427 166.146 32.2613 166.146 31.6Z" fill="white"/>
<path d="M196.5 27.4019C198.5 28.5566 198.5 31.4434 196.5 32.5981L189 36.9282C187 38.0829 184.5 36.6395 184.5 34.3301L184.5 25.6699C184.5 23.3605 187 21.9171 189 23.0718L196.5 27.4019Z" fill="white"/>
<defs>
<linearGradient id="paint0_linear_1966_615" x1="-6.88325" y1="61" x2="243.35" y2="-22.4876" gradientUnits="userSpaceOnUse">
<stop stop-color="#45DEF2"/>
<stop offset="1" stop-color="#4CF0C9"/>
</linearGradient>
</defs>
</svg>
