<svg width="40" height="40" viewBox="0 0 40 40" fill="none" xmlns="http://www.w3.org/2000/svg">
<path d="M13.3333 15.8333C12.1827 15.8333 11.25 16.766 11.25 17.9166C11.25 19.0672 12.1827 19.9999 13.3333 19.9999C14.4839 19.9999 15.4167 19.0672 15.4167 17.9166C15.4167 16.766 14.4839 15.8333 13.3333 15.8333Z" fill="black"/>
<path d="M20 15.8333C18.8494 15.8333 17.9167 16.766 17.9167 17.9166C17.9167 19.0672 18.8494 19.9999 20 19.9999C21.1506 19.9999 22.0833 19.0672 22.0833 17.9166C22.0833 16.766 21.1506 15.8333 20 15.8333Z" fill="black"/>
<path d="M24.5833 17.9166C24.5833 16.766 25.5161 15.8333 26.6667 15.8333C27.8173 15.8333 28.75 16.766 28.75 17.9166C28.75 19.0672 27.8173 19.9999 26.6667 19.9999C25.5161 19.9999 24.5833 19.0672 24.5833 17.9166Z" fill="black"/>
<path fill-rule="evenodd" clip-rule="evenodd" d="M26.8345 7.65459C22.3442 7.27166 17.8304 7.24944 13.3366 7.58814L13.0145 7.61241C8.72901 7.93541 5.41667 11.5068 5.41667 15.8045V29.9999C5.41667 30.4397 5.64778 30.8472 6.02525 31.0728C6.40272 31.2985 6.87101 31.3092 7.2584 31.101L13.7764 27.5982C14.0796 27.4352 14.4184 27.3499 14.7626 27.3499H29.7233C31.6101 27.3499 33.2271 26.001 33.5653 24.1447C34.2508 20.3827 34.3049 16.5327 33.7255 12.7529L33.5548 11.639C33.2439 9.61106 31.585 8.05971 29.5408 7.88538L26.8345 7.65459ZM13.5245 10.0811C17.8851 9.75241 22.265 9.77398 26.6221 10.1456L29.3283 10.3763C30.2223 10.4526 30.9477 11.131 31.0836 12.0178L31.2544 13.1316C31.7917 16.6371 31.7415 20.2076 31.1058 23.6966C30.9841 24.3645 30.4022 24.8499 29.7233 24.8499H14.7626C14.0054 24.8499 13.2599 25.0376 12.5929 25.396L7.91667 27.9091V15.8045C7.91667 12.8146 10.221 10.33 13.2024 10.1053L13.5245 10.0811Z" fill="black"/>
</svg>
