<svg width="136" height="136" viewBox="0 0 136 136" fill="none" xmlns="http://www.w3.org/2000/svg">
<path fill-rule="evenodd" clip-rule="evenodd" d="M68 119C96.1665 119 119 96.1665 119 68C119 39.8335 96.1665 17 68 17C39.8335 17 17 39.8335 17 68C17 96.1665 39.8335 119 68 119ZM91.4349 51.6402C91.7885 51.2159 91.7311 50.5853 91.3068 50.2318C90.8826 49.8782 90.252 49.9355 89.8984 50.3598L62.9672 82.6774C62.6204 83.0934 62.4255 83.3238 62.2699 83.4653L62.264 83.4707L62.2576 83.4659C62.0898 83.339 61.8748 83.1272 61.4918 82.7443L46.0404 67.2929C45.6499 66.9024 45.0168 66.9024 44.6262 67.2929C44.2357 67.6834 44.2357 68.3166 44.6262 68.7071L60.0776 84.1585L60.1185 84.1994C60.445 84.526 60.759 84.8402 61.0513 85.0611C61.3786 85.3087 61.8074 85.5415 62.3568 85.5165C62.9062 85.4916 63.3121 85.221 63.6157 84.9448C63.8867 84.6983 64.171 84.357 64.4666 84.0021L64.5036 83.9577L91.4349 51.6402Z" fill="#27AE60"/>
</svg>
