<svg width="98" height="98" viewBox="0 0 98 98" fill="none" xmlns="http://www.w3.org/2000/svg">
<path d="M24.356 12.8065C21.5866 13.5486 19.0613 15.0066 17.0339 17.0339C15.0066 19.0613 13.5486 21.5866 12.8065 24.356" stroke="#F2994A" stroke-width="2" stroke-linecap="round"/>
<path d="M73.644 12.8065C76.4134 13.5486 78.9387 15.0066 80.9661 17.0339C82.9934 19.0613 84.4514 21.5866 85.1935 24.356" stroke="#F2994A" stroke-width="2" stroke-linecap="round"/>
<path fill-rule="evenodd" clip-rule="evenodd" d="M48.9999 81.6666C67.0412 81.6666 81.6666 67.0413 81.6666 49C81.6666 30.9587 67.0412 16.3333 48.9999 16.3333C30.9586 16.3333 16.3333 30.9587 16.3333 49C16.3333 67.0413 30.9586 81.6666 48.9999 81.6666ZM49.9999 32.6666C49.9999 32.1144 49.5522 31.6666 48.9999 31.6666C48.4476 31.6666 47.9999 32.1144 47.9999 32.6666V48.75C47.9999 49.4403 48.5596 50 49.2499 50H61.2499C61.8022 50 62.2499 49.5523 62.2499 49C62.2499 48.4477 61.8022 48 61.2499 48H49.9999V32.6666Z" fill="#F2994A"/>
</svg>
