<svg width="63" height="61" viewBox="0 0 63 61" fill="none" xmlns="http://www.w3.org/2000/svg">
<path d="M13 25C13 11.1929 24.1929 0 38 0C51.8071 0 63 11.1929 63 25C63 38.8071 51.8071 50 38 50C24.1929 50 13 38.8071 13 25ZM56.75 25C56.75 14.6447 48.3553 6.25 38 6.25C27.6447 6.25 19.25 14.6447 19.25 25C19.25 35.3553 27.6447 43.75 38 43.75C48.3553 43.75 56.75 35.3553 56.75 25Z" fill="#F0C7FF"/>
<line x1="21" y1="40.9681" x2="6.65685" y2="55.3113" stroke="#F0C7FF" stroke-width="8" stroke-linecap="round"/>
<line x1="19.0503" y1="57" x2="4" y2="41.9497" stroke="#F0C7FF" stroke-width="7" stroke-linecap="round"/>
</svg>
