<svg width="120" height="50" viewBox="0 0 120 50" fill="none" xmlns="http://www.w3.org/2000/svg">
<rect x="1" y="1" width="118" height="48" rx="9" stroke="url(#paint0_linear_1966_569)" stroke-width="2"/>
<path d="M36.36 30.52H41.24V32H34.54V18.06H36.36V30.52ZM47.9528 32.18C46.9261 32.18 45.9928 31.9467 45.1528 31.48C44.3261 31.0133 43.6728 30.3533 43.1928 29.5C42.7261 28.6333 42.4928 27.6333 42.4928 26.5C42.4928 25.38 42.7328 24.3933 43.2128 23.54C43.7061 22.6733 44.3728 22.0133 45.2128 21.56C46.0528 21.0933 46.9928 20.86 48.0328 20.86C49.0728 20.86 50.0128 21.0933 50.8528 21.56C51.6928 22.0133 52.3528 22.6667 52.8328 23.52C53.3261 24.3733 53.5728 25.3667 53.5728 26.5C53.5728 27.6333 53.3195 28.6333 52.8128 29.5C52.3195 30.3533 51.6461 31.0133 50.7928 31.48C49.9395 31.9467 48.9928 32.18 47.9528 32.18ZM47.9528 30.58C48.6061 30.58 49.2195 30.4267 49.7928 30.12C50.3661 29.8133 50.8261 29.3533 51.1728 28.74C51.5328 28.1267 51.7128 27.38 51.7128 26.5C51.7128 25.62 51.5395 24.8733 51.1928 24.26C50.8461 23.6467 50.3928 23.1933 49.8328 22.9C49.2728 22.5933 48.6661 22.44 48.0128 22.44C47.3461 22.44 46.7328 22.5933 46.1728 22.9C45.6261 23.1933 45.1861 23.6467 44.8528 24.26C44.5195 24.8733 44.3528 25.62 44.3528 26.5C44.3528 27.3933 44.5128 28.1467 44.8328 28.76C45.1661 29.3733 45.6061 29.8333 46.1528 30.14C46.6995 30.4333 47.2995 30.58 47.9528 30.58ZM60.4858 20.86C61.4324 20.86 62.2591 21.0667 62.9658 21.48C63.6858 21.8933 64.2191 22.4133 64.5658 23.04V21.04H66.4058V32.24C66.4058 33.24 66.1924 34.1267 65.7658 34.9C65.3391 35.6867 64.7258 36.3 63.9258 36.74C63.1391 37.18 62.2191 37.4 61.1658 37.4C59.7258 37.4 58.5258 37.06 57.5658 36.38C56.6058 35.7 56.0391 34.7733 55.8658 33.6H57.6658C57.8658 34.2667 58.2791 34.8 58.9058 35.2C59.5324 35.6133 60.2858 35.82 61.1658 35.82C62.1658 35.82 62.9791 35.5067 63.6058 34.88C64.2458 34.2533 64.5658 33.3733 64.5658 32.24V29.94C64.2058 30.58 63.6724 31.1133 62.9658 31.54C62.2591 31.9667 61.4324 32.18 60.4858 32.18C59.5124 32.18 58.6258 31.94 57.8258 31.46C57.0391 30.98 56.4191 30.3067 55.9658 29.44C55.5124 28.5733 55.2858 27.5867 55.2858 26.48C55.2858 25.36 55.5124 24.38 55.9658 23.54C56.4191 22.6867 57.0391 22.0267 57.8258 21.56C58.6258 21.0933 59.5124 20.86 60.4858 20.86ZM64.5658 26.5C64.5658 25.6733 64.3991 24.9533 64.0658 24.34C63.7324 23.7267 63.2791 23.26 62.7058 22.94C62.1458 22.6067 61.5258 22.44 60.8458 22.44C60.1658 22.44 59.5458 22.6 58.9858 22.92C58.4258 23.24 57.9791 23.7067 57.6458 24.32C57.3124 24.9333 57.1458 25.6533 57.1458 26.48C57.1458 27.32 57.3124 28.0533 57.6458 28.68C57.9791 29.2933 58.4258 29.7667 58.9858 30.1C59.5458 30.42 60.1658 30.58 60.8458 30.58C61.5258 30.58 62.1458 30.42 62.7058 30.1C63.2791 29.7667 63.7324 29.2933 64.0658 28.68C64.3991 28.0533 64.5658 27.3267 64.5658 26.5ZM70.4214 19.26C70.0747 19.26 69.7814 19.14 69.5414 18.9C69.3014 18.66 69.1814 18.3667 69.1814 18.02C69.1814 17.6733 69.3014 17.38 69.5414 17.14C69.7814 16.9 70.0747 16.78 70.4214 16.78C70.7547 16.78 71.0347 16.9 71.2614 17.14C71.5014 17.38 71.6214 17.6733 71.6214 18.02C71.6214 18.3667 71.5014 18.66 71.2614 18.9C71.0347 19.14 70.7547 19.26 70.4214 19.26ZM71.3014 21.04V32H69.4814V21.04H71.3014ZM79.7433 20.84C81.0766 20.84 82.1566 21.2467 82.9833 22.06C83.8099 22.86 84.2233 24.02 84.2233 25.54V32H82.4233V25.8C82.4233 24.7067 82.1499 23.8733 81.6033 23.3C81.0566 22.7133 80.3099 22.42 79.3633 22.42C78.4033 22.42 77.6366 22.72 77.0633 23.32C76.5033 23.92 76.2233 24.7933 76.2233 25.94V32H74.4033V21.04H76.2233V22.6C76.5833 22.04 77.0699 21.6067 77.6833 21.3C78.3099 20.9933 78.9966 20.84 79.7433 20.84Z" fill="black"/>
<defs>
<linearGradient id="paint0_linear_1966_569" x1="-6.5" y1="55.5" x2="128.5" y2="-3" gradientUnits="userSpaceOnUse">
<stop stop-color="#45DEF2"/>
<stop offset="1" stop-color="#4CF0C9"/>
</linearGradient>
</defs>
</svg>
