<svg width="36" height="36" viewBox="0 0 36 36" fill="none" xmlns="http://www.w3.org/2000/svg">
<path fill-rule="evenodd" clip-rule="evenodd" d="M19.5 4.5C19.5 3.67157 18.8284 3 18 3C17.1716 3 16.5 3.67157 16.5 4.5V5.625H15.6639C12.3263 5.625 9.56387 8.22002 9.35552 11.5511L9.02402 16.8513C8.89763 18.8721 8.2192 20.8195 7.06261 22.4814C6.01758 23.983 6.94791 26.0568 8.76431 26.2748L13.875 26.8881V28.5C13.875 30.7782 15.7218 32.625 18 32.625C20.2782 32.625 22.125 30.7782 22.125 28.5V26.8881L27.2357 26.2748C29.0521 26.0568 29.9824 23.9829 28.9374 22.4814C27.7808 20.8195 27.1024 18.8721 26.976 16.8513L26.6445 11.5511C26.4361 8.22002 23.6737 5.625 20.3361 5.625H19.5V4.5ZM15.6639 7.875C13.5144 7.875 11.7353 9.54626 11.6011 11.6916L11.2696 16.9918C11.1175 19.4235 10.3012 21.7668 8.90939 23.7666C8.83385 23.8752 8.9011 24.0251 9.03239 24.0408L14.6389 24.7136C16.8716 24.9815 19.1284 24.9815 21.3611 24.7136L26.9676 24.0408C27.0989 24.0251 27.1661 23.8752 27.0906 23.7666C25.6988 21.7668 24.8824 19.4235 24.7304 16.9918L24.3988 11.6916C24.2647 9.54626 22.4856 7.875 20.3361 7.875H15.6639ZM18 30.375C16.9645 30.375 16.125 29.5355 16.125 28.5V27.375H19.875V28.5C19.875 29.5355 19.0355 30.375 18 30.375Z" fill="black"/>
</svg>
