<svg width="33" height="32" viewBox="0 0 33 32" fill="none" xmlns="http://www.w3.org/2000/svg">
<path fill-rule="evenodd" clip-rule="evenodd" d="M29.9129 4.75001H6.8919L4.92494 1.22434C4.70416 0.8286 4.28649 0.583344 3.83333 0.583344H1.33333C0.642972 0.583344 0.0833282 1.14299 0.0833282 1.83334C0.0833282 2.5237 0.642972 3.08334 1.33333 3.08334H3.09933L5.04048 6.56276L9.51727 16.4681L9.52186 16.4783L9.91617 17.3507L5.42144 22.1451C5.09825 22.4898 4.99709 22.9873 5.15997 23.4309C5.32286 23.8745 5.72195 24.1883 6.19143 24.2419L10.2883 24.7101C15.4128 25.2958 20.5873 25.2958 25.7117 24.7101L29.8086 24.2419C30.4945 24.1635 30.987 23.544 30.9086 22.8581C30.8302 22.1722 30.2106 21.6797 29.5248 21.7581L25.4279 22.2263C20.492 22.7904 15.508 22.7904 10.5722 22.2263L8.94632 22.0405L12.2453 18.5216C12.2772 18.4876 12.3068 18.4522 12.3342 18.4157L13.5889 18.579C15.3471 18.8078 17.1244 18.8526 18.8919 18.7128C23.0143 18.3868 26.835 16.4252 29.5024 13.2651L30.4659 12.1238C30.4983 12.0854 30.5283 12.0452 30.5558 12.0032L32.3514 9.26683C33.6242 7.32722 32.2328 4.75001 29.9129 4.75001ZM12.4271 15.9068C12.1514 15.8709 11.9137 15.6958 11.7976 15.4434L11.7954 15.4385L8.09456 7.25001H29.9129C30.2443 7.25001 30.4431 7.61818 30.2612 7.89527L28.5069 10.5687L27.5921 11.6525C25.3553 14.3023 22.1516 15.9472 18.6948 16.2206C17.1005 16.3467 15.4974 16.3062 13.9115 16.0999L12.4271 15.9068Z" fill="black"/>
<path d="M8.83333 26.8333C7.45262 26.8333 6.33333 27.9526 6.33333 29.3333C6.33333 30.7141 7.45262 31.8333 8.83333 31.8333C10.214 31.8333 11.3333 30.7141 11.3333 29.3333C11.3333 27.9526 10.214 26.8333 8.83333 26.8333Z" fill="black"/>
<path d="M24.6667 29.3333C24.6667 27.9526 25.786 26.8333 27.1667 26.8333C28.5474 26.8333 29.6667 27.9526 29.6667 29.3333C29.6667 30.7141 28.5474 31.8333 27.1667 31.8333C25.786 31.8333 24.6667 30.7141 24.6667 29.3333Z" fill="black"/>
</svg>
