<svg width="26" height="29" viewBox="0 0 26 29" fill="none" xmlns="http://www.w3.org/2000/svg">
<path fill-rule="evenodd" clip-rule="evenodd" d="M5.91671 7.49999C5.91671 3.58797 9.08802 0.416656 13 0.416656C16.9121 0.416656 20.0834 3.58797 20.0834 7.49999C20.0834 11.412 16.9121 14.5833 13 14.5833C9.08802 14.5833 5.91671 11.412 5.91671 7.49999ZM13 2.91666C10.4687 2.91666 8.41671 4.96868 8.41671 7.49999C8.41671 10.0313 10.4687 12.0833 13 12.0833C15.5313 12.0833 17.5834 10.0313 17.5834 7.49999C17.5834 4.96868 15.5313 2.91666 13 2.91666Z" fill="black"/>
<path fill-rule="evenodd" clip-rule="evenodd" d="M6.33337 19.5833C4.26231 19.5833 2.58337 21.2623 2.58337 23.3333V25.3138C2.58337 25.3439 2.60523 25.3697 2.63499 25.3745C9.49958 26.4953 16.5005 26.4953 23.3651 25.3745C23.3949 25.3697 23.4167 25.344 23.4167 25.3138V23.3333C23.4167 21.2623 21.7378 19.5833 19.6667 19.5833H19.0986C19.0547 19.5833 19.011 19.5903 18.9693 19.6039L17.5267 20.0749C14.5854 21.0354 11.4147 21.0354 8.47335 20.0749L7.03082 19.6039C6.98907 19.5903 6.94542 19.5833 6.90149 19.5833H6.33337ZM0.083374 23.3333C0.083374 19.8815 2.88159 17.0833 6.33337 17.0833H6.90149C7.20898 17.0833 7.51453 17.1319 7.80683 17.2274L9.24935 17.6984C11.6865 18.4942 14.3136 18.4942 16.7507 17.6984L18.1933 17.2274C18.4856 17.1319 18.7911 17.0833 19.0986 17.0833H19.6667C23.1185 17.0833 25.9167 19.8815 25.9167 23.3333V25.3138C25.9167 26.5692 25.0069 27.6396 23.7679 27.8419C16.6365 29.0062 9.36354 29.0062 2.23216 27.8419C0.99318 27.6396 0.083374 26.5692 0.083374 25.3138V23.3333Z" fill="black"/>
</svg>
