<svg width="34" height="32" viewBox="0 0 34 32" fill="none" xmlns="http://www.w3.org/2000/svg">
<path fill-rule="evenodd" clip-rule="evenodd" d="M20.3788 20.5944C16.6243 23.4246 11.1284 23.2018 7.64796 19.9261C3.91357 16.4114 3.91357 10.7129 7.64796 7.19817C11.3823 3.68345 17.437 3.68345 21.1714 7.19817C24.6518 10.4739 24.8885 15.6464 21.8814 19.1801L29.1852 26.0543C29.6002 26.4448 29.6002 27.078 29.1852 27.4685C28.7703 27.8591 28.0976 27.8591 27.6826 27.4685L20.3788 20.5944ZM9.15056 18.5119C6.24604 15.7782 6.24604 11.3461 9.15056 8.61239C12.0551 5.87872 16.7642 5.87872 19.6688 8.61239C22.5712 11.344 22.5733 15.7717 19.6752 18.5059C19.673 18.5078 19.6709 18.5098 19.6688 18.5118C19.6666 18.5139 19.6645 18.5159 19.6624 18.5179C16.7573 21.2455 12.053 21.2435 9.15056 18.5119Z" fill="#313131" fill-opacity="0.75"/>
</svg>
