<svg width="29" height="23" viewBox="0 0 29 23" fill="none" xmlns="http://www.w3.org/2000/svg">
<path d="M2 9.9364C1.17157 9.9364 0.5 10.608 0.5 11.4364C0.5 12.2648 1.17157 12.9364 2 12.9364V9.9364ZM28.0607 12.4971C28.6464 11.9113 28.6464 10.9615 28.0607 10.3757L18.5147 0.8298C17.9289 0.244013 16.9792 0.244013 16.3934 0.8298C15.8076 1.41559 15.8076 2.36533 16.3934 2.95112L24.8787 11.4364L16.3934 19.9217C15.8076 20.5075 15.8076 21.4572 16.3934 22.043C16.9792 22.6288 17.9289 22.6288 18.5147 22.043L28.0607 12.4971ZM2 12.9364H27V9.9364H2V12.9364Z" fill="black"/>
</svg>
