<svg width="98" height="98" viewBox="0 0 98 98" fill="none" xmlns="http://www.w3.org/2000/svg">
<path fill-rule="evenodd" clip-rule="evenodd" d="M85.75 49C85.75 69.2965 69.2965 85.75 49 85.75C28.7035 85.75 12.25 69.2965 12.25 49C12.25 28.7035 28.7035 12.25 49 12.25C69.2965 12.25 85.75 28.7035 85.75 49ZM31.9596 66.0404C31.569 65.6499 31.569 65.0168 31.9596 64.6262L47.5858 49L31.9596 33.3738C31.569 32.9832 31.569 32.3501 31.9596 31.9596C32.3501 31.569 32.9832 31.569 33.3738 31.9596L49 47.5858L64.6262 31.9596C65.0168 31.569 65.6499 31.569 66.0404 31.9596C66.431 32.3501 66.431 32.9832 66.0404 33.3738L50.4142 49L66.0404 64.6262C66.431 65.0168 66.431 65.6499 66.0404 66.0404C65.6499 66.431 65.0168 66.431 64.6262 66.0404L49 50.4142L33.3738 66.0404C32.9832 66.431 32.3501 66.431 31.9596 66.0404Z" fill="#EB5757"/>
</svg>
