<svg width="118" height="109" viewBox="0 0 118 109" fill="none" xmlns="http://www.w3.org/2000/svg">
<path d="M3.02635 44.7893H102.719C103.517 44.7893 104.163 45.4361 104.163 46.2341V66.4615C104.163 81.6226 91.873 93.913 76.712 93.913H29.033C13.872 93.913 1.58153 81.6226 1.58153 66.4615V46.2341C1.58153 45.4361 2.2284 44.7893 3.02635 44.7893Z" stroke="black" stroke-width="2.88963"/>
<mask id="path-2-inside-1_1966_631" fill="white">
<path d="M26.1436 93.9131C26.1436 93.1151 26.7904 92.4682 27.5884 92.4682H79.6017C80.3997 92.4682 81.0466 93.1151 81.0466 93.9131V99.6923C81.0466 102.086 79.106 104.027 76.7121 104.027H30.478C28.0842 104.027 26.1436 102.086 26.1436 99.6923V93.9131Z"/>
</mask>
<path d="M26.1436 93.9131C26.1436 93.1151 26.7904 92.4682 27.5884 92.4682H79.6017C80.3997 92.4682 81.0466 93.1151 81.0466 93.9131V99.6923C81.0466 102.086 79.106 104.027 76.7121 104.027H30.478C28.0842 104.027 26.1436 102.086 26.1436 99.6923V93.9131Z" stroke="black" stroke-width="5.77926" mask="url(#path-2-inside-1_1966_631)"/>
<line x1="3.02636" y1="54.903" x2="10.2504" y2="54.903" stroke="black" stroke-width="2.88963" stroke-linecap="round"/>
<line x1="17.4746" y1="54.903" x2="102.719" y2="54.903" stroke="black" stroke-width="2.88963" stroke-linecap="round"/>
<ellipse cx="31.1999" cy="91.7458" rx="18.0602" ry="10.8361" fill="white"/>
<circle cx="31.9228" cy="101.137" r="5.77926" fill="white" stroke="black" stroke-width="2.88963"/>
<path d="M37.7021 91.0234C37.7021 93.2125 37.0312 94.108 36.2682 94.5823C35.3405 95.159 33.9102 95.3579 31.9228 95.3579C29.9354 95.3579 28.5051 95.159 27.5774 94.5823C26.8144 94.108 26.1435 93.2125 26.1435 91.0234C26.1435 90.2911 26.3859 89.2673 26.8643 88.0705C27.3333 86.8973 27.9883 85.6587 28.7138 84.5286C29.4424 83.3939 30.2135 82.4133 30.8968 81.736C31.2398 81.3962 31.5296 81.1637 31.7526 81.0252C31.8647 80.9555 31.9347 80.9253 31.9667 80.913C32.1477 80.9374 32.592 81.1081 33.2756 81.7574C33.9667 82.4138 34.7027 83.3713 35.3819 84.4953C36.7714 86.7947 37.7021 89.4137 37.7021 91.0234Z" fill="white" stroke="black" stroke-width="2.88963"/>
<path d="M42.0362 105.472C39.8471 105.472 38.9516 104.801 38.4773 104.038C37.9006 103.11 37.7018 101.68 37.7018 99.6923C37.7018 97.7049 37.9006 96.2746 38.4773 95.3469C38.9516 94.5839 39.8471 93.9131 42.0362 93.9131C42.7685 93.9131 43.7923 94.1554 44.9891 94.6338C46.1623 95.1028 47.4009 95.7578 48.531 96.4834C49.6657 97.2119 50.6463 97.983 51.3236 98.6663C51.6635 99.0093 51.8959 99.2991 52.0344 99.5221C52.1041 99.6342 52.1343 99.7042 52.1466 99.7362C52.1222 99.9172 51.9515 100.361 51.3022 101.045C50.6458 101.736 49.6883 102.472 48.5644 103.151C46.2649 104.541 43.6459 105.472 42.0362 105.472Z" fill="white" stroke="black" stroke-width="2.88963"/>
<path d="M21.8085 105.472C23.9976 105.472 24.8931 104.801 25.3674 104.038C25.9441 103.11 26.143 101.68 26.143 99.6923C26.143 97.7049 25.9441 96.2746 25.3674 95.3469C24.8931 94.5839 23.9976 93.9131 21.8085 93.9131C21.0762 93.9131 20.0524 94.1554 18.8556 94.6338C17.6824 95.1028 16.4438 95.7578 15.3137 96.4834C14.179 97.2119 13.1984 97.983 12.5212 98.6663C12.1813 99.0093 11.9488 99.2991 11.8103 99.5221C11.7407 99.6342 11.7104 99.7042 11.6981 99.7362C11.7225 99.9172 11.8932 100.361 12.5426 101.045C13.1989 101.736 14.1564 102.472 15.2804 103.151C17.5798 104.541 20.1988 105.472 21.8085 105.472Z" fill="white" stroke="black" stroke-width="2.88963"/>
<path d="M34.0903 82.3545C34.8018 82.2359 35.9108 82.0545 37.2761 81.8327C45.7321 80.4587 52.4426 88.8485 49.2609 96.8027V96.8027" stroke="black" stroke-width="2.88963"/>
<path d="M29.7549 82.3545C28.9992 82.2286 27.7952 81.9974 26.3119 81.7029C17.7435 80.0017 10.8181 88.0095 13.6757 96.2646L13.8619 96.8027" stroke="black" stroke-width="2.88963"/>
<path d="M63.7059 44.7893L82.5364 28.5601L82.7885 22.9468C83.0797 16.4646 88.5706 11.4458 95.0528 11.737V11.737C101.535 12.0282 106.554 17.5191 106.263 24.0013V24.0013C105.971 30.4835 100.48 35.5022 93.9983 35.211L88.3849 34.9589L75.9869 44.7893" stroke="black" stroke-width="2.88963"/>
</svg>
