<svg width="589" height="442" viewBox="0 0 589 442" fill="none" xmlns="http://www.w3.org/2000/svg">
<g filter="url(#filter0_d_1966_807)">
<rect x="88" y="88" width="413" height="266" rx="10" fill="white"/>
</g>
<path d="M119.22 110.24C119.22 110.947 119.053 111.613 118.72 112.24C118.387 112.867 117.853 113.38 117.12 113.78C116.387 114.167 115.447 114.36 114.3 114.36H111.78V120H109.5V106.1H114.3C115.367 106.1 116.267 106.287 117 106.66C117.747 107.02 118.3 107.513 118.66 108.14C119.033 108.767 119.22 109.467 119.22 110.24ZM114.3 112.5C115.167 112.5 115.813 112.307 116.24 111.92C116.667 111.52 116.88 110.96 116.88 110.24C116.88 108.72 116.02 107.96 114.3 107.96H111.78V112.5H114.3ZM124.675 110.58C125.008 110.02 125.448 109.587 125.995 109.28C126.555 108.96 127.215 108.8 127.975 108.8V111.16H127.395C126.501 111.16 125.821 111.387 125.355 111.84C124.901 112.293 124.675 113.08 124.675 114.2V120H122.395V108.98H124.675V110.58ZM135.85 120.18C134.81 120.18 133.87 119.947 133.03 119.48C132.19 119 131.53 118.333 131.05 117.48C130.57 116.613 130.33 115.613 130.33 114.48C130.33 113.36 130.577 112.367 131.07 111.5C131.564 110.633 132.237 109.967 133.09 109.5C133.944 109.033 134.897 108.8 135.95 108.8C137.004 108.8 137.957 109.033 138.81 109.5C139.664 109.967 140.337 110.633 140.83 111.5C141.324 112.367 141.57 113.36 141.57 114.48C141.57 115.6 141.317 116.593 140.81 117.46C140.304 118.327 139.61 119 138.73 119.48C137.864 119.947 136.904 120.18 135.85 120.18ZM135.85 118.2C136.437 118.2 136.984 118.06 137.49 117.78C138.01 117.5 138.43 117.08 138.75 116.52C139.07 115.96 139.23 115.28 139.23 114.48C139.23 113.68 139.077 113.007 138.77 112.46C138.464 111.9 138.057 111.48 137.55 111.2C137.044 110.92 136.497 110.78 135.91 110.78C135.324 110.78 134.777 110.92 134.27 111.2C133.777 111.48 133.384 111.9 133.09 112.46C132.797 113.007 132.65 113.68 132.65 114.48C132.65 115.667 132.95 116.587 133.55 117.24C134.164 117.88 134.93 118.2 135.85 118.2ZM149.444 110.84H147.404V120H145.104V110.84H143.804V108.98H145.104V108.2C145.104 106.933 145.438 106.013 146.104 105.44C146.784 104.853 147.844 104.56 149.284 104.56V106.46C148.591 106.46 148.104 106.593 147.824 106.86C147.544 107.113 147.404 107.56 147.404 108.2V108.98H149.444V110.84ZM153.625 107.52C153.212 107.52 152.865 107.38 152.585 107.1C152.305 106.82 152.165 106.473 152.165 106.06C152.165 105.647 152.305 105.3 152.585 105.02C152.865 104.74 153.212 104.6 153.625 104.6C154.025 104.6 154.365 104.74 154.645 105.02C154.925 105.3 155.065 105.647 155.065 106.06C155.065 106.473 154.925 106.82 154.645 107.1C154.365 107.38 154.025 107.52 153.625 107.52ZM154.745 108.98V120H152.465V108.98H154.745ZM161.398 110.84V116.94C161.398 117.353 161.492 117.653 161.678 117.84C161.878 118.013 162.212 118.1 162.678 118.1H164.078V120H162.278C161.252 120 160.465 119.76 159.918 119.28C159.372 118.8 159.098 118.02 159.098 116.94V110.84H157.798V108.98H159.098V106.24H161.398V108.98H164.078V110.84H161.398ZM175.655 110.6C176.042 110.093 176.568 109.667 177.235 109.32C177.902 108.973 178.655 108.8 179.495 108.8C180.455 108.8 181.328 109.04 182.115 109.52C182.915 109.987 183.542 110.647 183.995 111.5C184.448 112.353 184.675 113.333 184.675 114.44C184.675 115.547 184.448 116.54 183.995 117.42C183.542 118.287 182.915 118.967 182.115 119.46C181.328 119.94 180.455 120.18 179.495 120.18C178.655 120.18 177.908 120.013 177.255 119.68C176.602 119.333 176.068 118.907 175.655 118.4V125.24H173.375V108.98H175.655V110.6ZM182.355 114.44C182.355 113.68 182.195 113.027 181.875 112.48C181.568 111.92 181.155 111.5 180.635 111.22C180.128 110.927 179.582 110.78 178.995 110.78C178.422 110.78 177.875 110.927 177.355 111.22C176.848 111.513 176.435 111.94 176.115 112.5C175.808 113.06 175.655 113.72 175.655 114.48C175.655 115.24 175.808 115.907 176.115 116.48C176.435 117.04 176.848 117.467 177.355 117.76C177.875 118.053 178.422 118.2 178.995 118.2C179.582 118.2 180.128 118.053 180.635 117.76C181.155 117.453 181.568 117.013 181.875 116.44C182.195 115.867 182.355 115.2 182.355 114.44ZM198.03 114.22C198.03 114.633 198.003 115.007 197.95 115.34H189.53C189.596 116.22 189.923 116.927 190.51 117.46C191.096 117.993 191.816 118.26 192.67 118.26C193.896 118.26 194.763 117.747 195.27 116.72H197.73C197.396 117.733 196.79 118.567 195.91 119.22C195.043 119.86 193.963 120.18 192.67 120.18C191.616 120.18 190.67 119.947 189.83 119.48C189.003 119 188.35 118.333 187.87 117.48C187.403 116.613 187.17 115.613 187.17 114.48C187.17 113.347 187.396 112.353 187.85 111.5C188.316 110.633 188.963 109.967 189.79 109.5C190.63 109.033 191.59 108.8 192.67 108.8C193.71 108.8 194.636 109.027 195.45 109.48C196.263 109.933 196.896 110.573 197.35 111.4C197.803 112.213 198.03 113.153 198.03 114.22ZM195.65 113.5C195.636 112.66 195.336 111.987 194.75 111.48C194.163 110.973 193.436 110.72 192.57 110.72C191.783 110.72 191.11 110.973 190.55 111.48C189.99 111.973 189.656 112.647 189.55 113.5H195.65ZM203.553 110.58C203.887 110.02 204.327 109.587 204.873 109.28C205.433 108.96 206.093 108.8 206.853 108.8V111.16H206.273C205.38 111.16 204.7 111.387 204.233 111.84C203.78 112.293 203.553 113.08 203.553 114.2V120H201.273V108.98H203.553V110.58ZM230.945 108.98L227.525 120H225.125L222.905 111.86L220.685 120H218.285L214.845 108.98H217.165L219.465 117.84L221.805 108.98H224.185L226.425 117.8L228.705 108.98H230.945ZM243.748 114.22C243.748 114.633 243.722 115.007 243.668 115.34H235.248C235.315 116.22 235.642 116.927 236.228 117.46C236.815 117.993 237.535 118.26 238.388 118.26C239.615 118.26 240.482 117.747 240.988 116.72H243.448C243.115 117.733 242.508 118.567 241.628 119.22C240.762 119.86 239.682 120.18 238.388 120.18C237.335 120.18 236.388 119.947 235.548 119.48C234.722 119 234.068 118.333 233.588 117.48C233.122 116.613 232.888 115.613 232.888 114.48C232.888 113.347 233.115 112.353 233.568 111.5C234.035 110.633 234.682 109.967 235.508 109.5C236.348 109.033 237.308 108.8 238.388 108.8C239.428 108.8 240.355 109.027 241.168 109.48C241.982 109.933 242.615 110.573 243.068 111.4C243.522 112.213 243.748 113.153 243.748 114.22ZM241.368 113.5C241.355 112.66 241.055 111.987 240.468 111.48C239.882 110.973 239.155 110.72 238.288 110.72C237.502 110.72 236.828 110.973 236.268 111.48C235.708 111.973 235.375 112.647 235.268 113.5H241.368ZM257.092 114.22C257.092 114.633 257.066 115.007 257.012 115.34H248.592C248.659 116.22 248.986 116.927 249.572 117.46C250.159 117.993 250.879 118.26 251.732 118.26C252.959 118.26 253.826 117.747 254.332 116.72H256.792C256.459 117.733 255.852 118.567 254.972 119.22C254.106 119.86 253.026 120.18 251.732 120.18C250.679 120.18 249.732 119.947 248.892 119.48C248.066 119 247.412 118.333 246.932 117.48C246.466 116.613 246.232 115.613 246.232 114.48C246.232 113.347 246.459 112.353 246.912 111.5C247.379 110.633 248.026 109.967 248.852 109.5C249.692 109.033 250.652 108.8 251.732 108.8C252.772 108.8 253.699 109.027 254.512 109.48C255.326 109.933 255.959 110.573 256.412 111.4C256.866 112.213 257.092 113.153 257.092 114.22ZM254.712 113.5C254.699 112.66 254.399 111.987 253.812 111.48C253.226 110.973 252.499 110.72 251.632 110.72C250.846 110.72 250.172 110.973 249.612 111.48C249.052 111.973 248.719 112.647 248.612 113.5H254.712ZM264.696 114.5L269.776 120H266.696L262.616 115.26V120H260.336V105.2H262.616V113.8L266.616 108.98H269.776L264.696 114.5ZM280.885 110.58C281.219 110.02 281.659 109.587 282.205 109.28C282.765 108.96 283.425 108.8 284.185 108.8V111.16H283.605C282.712 111.16 282.032 111.387 281.565 111.84C281.112 112.293 280.885 113.08 280.885 114.2V120H278.605V108.98H280.885V110.58ZM286.521 114.44C286.521 113.333 286.748 112.353 287.201 111.5C287.668 110.647 288.295 109.987 289.081 109.52C289.881 109.04 290.761 108.8 291.721 108.8C292.588 108.8 293.341 108.973 293.981 109.32C294.635 109.653 295.155 110.073 295.541 110.58V108.98H297.841V120H295.541V118.36C295.155 118.88 294.628 119.313 293.961 119.66C293.295 120.007 292.535 120.18 291.681 120.18C290.735 120.18 289.868 119.94 289.081 119.46C288.295 118.967 287.668 118.287 287.201 117.42C286.748 116.54 286.521 115.547 286.521 114.44ZM295.541 114.48C295.541 113.72 295.381 113.06 295.061 112.5C294.755 111.94 294.348 111.513 293.841 111.22C293.335 110.927 292.788 110.78 292.201 110.78C291.615 110.78 291.068 110.927 290.561 111.22C290.055 111.5 289.641 111.92 289.321 112.48C289.015 113.027 288.861 113.68 288.861 114.44C288.861 115.2 289.015 115.867 289.321 116.44C289.641 117.013 290.055 117.453 290.561 117.76C291.081 118.053 291.628 118.2 292.201 118.2C292.788 118.2 293.335 118.053 293.841 117.76C294.348 117.467 294.755 117.04 295.061 116.48C295.381 115.907 295.541 115.24 295.541 114.48ZM304.496 110.84V116.94C304.496 117.353 304.589 117.653 304.776 117.84C304.976 118.013 305.309 118.1 305.776 118.1H307.176V120H305.376C304.349 120 303.563 119.76 303.016 119.28C302.469 118.8 302.196 118.02 302.196 116.94V110.84H300.896V108.98H302.196V106.24H304.496V108.98H307.176V110.84H304.496ZM311.437 107.52C311.024 107.52 310.677 107.38 310.397 107.1C310.117 106.82 309.977 106.473 309.977 106.06C309.977 105.647 310.117 105.3 310.397 105.02C310.677 104.74 311.024 104.6 311.437 104.6C311.837 104.6 312.177 104.74 312.457 105.02C312.737 105.3 312.877 105.647 312.877 106.06C312.877 106.473 312.737 106.82 312.457 107.1C312.177 107.38 311.837 107.52 311.437 107.52ZM312.557 108.98V120H310.277V108.98H312.557ZM321.331 120.18C320.291 120.18 319.351 119.947 318.511 119.48C317.671 119 317.011 118.333 316.531 117.48C316.051 116.613 315.811 115.613 315.811 114.48C315.811 113.36 316.057 112.367 316.551 111.5C317.044 110.633 317.717 109.967 318.571 109.5C319.424 109.033 320.377 108.8 321.431 108.8C322.484 108.8 323.437 109.033 324.291 109.5C325.144 109.967 325.817 110.633 326.311 111.5C326.804 112.367 327.051 113.36 327.051 114.48C327.051 115.6 326.797 116.593 326.291 117.46C325.784 118.327 325.091 119 324.211 119.48C323.344 119.947 322.384 120.18 321.331 120.18ZM321.331 118.2C321.917 118.2 322.464 118.06 322.971 117.78C323.491 117.5 323.911 117.08 324.231 116.52C324.551 115.96 324.711 115.28 324.711 114.48C324.711 113.68 324.557 113.007 324.251 112.46C323.944 111.9 323.537 111.48 323.031 111.2C322.524 110.92 321.977 110.78 321.391 110.78C320.804 110.78 320.257 110.92 319.751 111.2C319.257 111.48 318.864 111.9 318.571 112.46C318.277 113.007 318.131 113.68 318.131 114.48C318.131 115.667 318.431 116.587 319.031 117.24C319.644 117.88 320.411 118.2 321.331 118.2Z" fill="black"/>
<path d="M123.12 156L117.864 146.46H116.388V156H110.232V130.728H120.564C122.556 130.728 124.248 131.076 125.64 131.772C127.056 132.468 128.112 133.428 128.808 134.652C129.504 135.852 129.852 137.196 129.852 138.684C129.852 140.364 129.372 141.864 128.412 143.184C127.476 144.504 126.084 145.44 124.236 145.992L130.068 156H123.12ZM116.388 142.104H120.204C121.332 142.104 122.172 141.828 122.724 141.276C123.3 140.724 123.588 139.944 123.588 138.936C123.588 137.976 123.3 137.22 122.724 136.668C122.172 136.116 121.332 135.84 120.204 135.84H116.388V142.104ZM141.672 138.756C142.272 137.82 143.1 137.064 144.156 136.488C145.212 135.912 146.448 135.624 147.864 135.624C149.52 135.624 151.02 136.044 152.364 136.884C153.708 137.724 154.764 138.924 155.532 140.484C156.324 142.044 156.72 143.856 156.72 145.92C156.72 147.984 156.324 149.808 155.532 151.392C154.764 152.952 153.708 154.164 152.364 155.028C151.02 155.868 149.52 156.288 147.864 156.288C146.472 156.288 145.236 156 144.156 155.424C143.1 154.848 142.272 154.104 141.672 153.192V165.576H135.516V135.912H141.672V138.756ZM150.456 145.92C150.456 144.384 150.024 143.184 149.16 142.32C148.32 141.432 147.276 140.988 146.028 140.988C144.804 140.988 143.76 141.432 142.896 142.32C142.056 143.208 141.636 144.42 141.636 145.956C141.636 147.492 142.056 148.704 142.896 149.592C143.76 150.48 144.804 150.924 146.028 150.924C147.252 150.924 148.296 150.48 149.16 149.592C150.024 148.68 150.456 147.456 150.456 145.92ZM170.711 151.32V146.352L182.087 130.08H188.963V145.992H191.915V151.32H188.963V156H182.807V151.32H170.711ZM183.239 136.848L177.191 145.992H183.239V136.848ZM200.222 156.288C199.142 156.288 198.254 155.976 197.558 155.352C196.886 154.704 196.55 153.912 196.55 152.976C196.55 152.016 196.886 151.212 197.558 150.564C198.254 149.916 199.142 149.592 200.222 149.592C201.278 149.592 202.142 149.916 202.814 150.564C203.51 151.212 203.858 152.016 203.858 152.976C203.858 153.912 203.51 154.704 202.814 155.352C202.142 155.976 201.278 156.288 200.222 156.288ZM208.474 151.068C209.29 150.42 209.662 150.12 209.59 150.168C211.942 148.224 213.79 146.628 215.134 145.38C216.502 144.132 217.654 142.824 218.59 141.456C219.526 140.088 219.994 138.756 219.994 137.46C219.994 136.476 219.766 135.708 219.31 135.156C218.854 134.604 218.17 134.328 217.258 134.328C216.346 134.328 215.626 134.676 215.098 135.372C214.594 136.044 214.342 137.004 214.342 138.252H208.402C208.45 136.212 208.882 134.508 209.698 133.14C210.538 131.772 211.63 130.764 212.974 130.116C214.342 129.468 215.854 129.144 217.51 129.144C220.366 129.144 222.514 129.876 223.954 131.34C225.418 132.804 226.15 134.712 226.15 137.064C226.15 139.632 225.274 142.02 223.522 144.228C221.77 146.412 219.538 148.548 216.826 150.636H226.546V155.64H208.474V151.068ZM249.561 135.084H238.329V140.052C238.809 139.524 239.481 139.092 240.345 138.756C241.209 138.42 242.145 138.252 243.153 138.252C244.953 138.252 246.441 138.66 247.617 139.476C248.817 140.292 249.693 141.348 250.245 142.644C250.797 143.94 251.073 145.344 251.073 146.856C251.073 149.664 250.281 151.896 248.697 153.552C247.113 155.184 244.881 156 242.001 156C240.081 156 238.413 155.676 236.997 155.028C235.581 154.356 234.489 153.432 233.721 152.256C232.953 151.08 232.533 149.724 232.461 148.188H238.473C238.617 148.932 238.965 149.556 239.517 150.06C240.069 150.54 240.825 150.78 241.785 150.78C242.913 150.78 243.753 150.42 244.305 149.7C244.857 148.98 245.133 148.02 245.133 146.82C245.133 145.644 244.845 144.744 244.269 144.12C243.693 143.496 242.853 143.184 241.749 143.184C240.933 143.184 240.261 143.388 239.733 143.796C239.205 144.18 238.857 144.696 238.689 145.344H232.749V129.684H249.561V135.084ZM256.271 142.5C256.271 138.372 257.063 135.12 258.647 132.744C260.255 130.368 262.835 129.18 266.387 129.18C269.939 129.18 272.507 130.368 274.091 132.744C275.699 135.12 276.503 138.372 276.503 142.5C276.503 146.676 275.699 149.952 274.091 152.328C272.507 154.704 269.939 155.892 266.387 155.892C262.835 155.892 260.255 154.704 258.647 152.328C257.063 149.952 256.271 146.676 256.271 142.5ZM270.455 142.5C270.455 140.076 270.191 138.216 269.663 136.92C269.135 135.6 268.043 134.94 266.387 134.94C264.731 134.94 263.639 135.6 263.111 136.92C262.583 138.216 262.319 140.076 262.319 142.5C262.319 144.132 262.415 145.488 262.607 146.568C262.799 147.624 263.183 148.488 263.759 149.16C264.359 149.808 265.235 150.132 266.387 150.132C267.539 150.132 268.403 149.808 268.979 149.16C269.579 148.488 269.975 147.624 270.167 146.568C270.359 145.488 270.455 144.132 270.455 142.5ZM285.047 156.288C283.967 156.288 283.079 155.976 282.383 155.352C281.711 154.704 281.375 153.912 281.375 152.976C281.375 152.016 281.711 151.212 282.383 150.564C283.079 149.916 283.967 149.592 285.047 149.592C286.103 149.592 286.967 149.916 287.639 150.564C288.335 151.212 288.683 152.016 288.683 152.976C288.683 153.912 288.335 154.704 287.639 155.352C286.967 155.976 286.103 156.288 285.047 156.288ZM293.515 142.5C293.515 138.372 294.307 135.12 295.891 132.744C297.499 130.368 300.079 129.18 303.631 129.18C307.183 129.18 309.751 130.368 311.335 132.744C312.943 135.12 313.747 138.372 313.747 142.5C313.747 146.676 312.943 149.952 311.335 152.328C309.751 154.704 307.183 155.892 303.631 155.892C300.079 155.892 297.499 154.704 295.891 152.328C294.307 149.952 293.515 146.676 293.515 142.5ZM307.699 142.5C307.699 140.076 307.435 138.216 306.907 136.92C306.379 135.6 305.287 134.94 303.631 134.94C301.975 134.94 300.883 135.6 300.355 136.92C299.827 138.216 299.563 140.076 299.563 142.5C299.563 144.132 299.659 145.488 299.851 146.568C300.043 147.624 300.427 148.488 301.003 149.16C301.603 149.808 302.479 150.132 303.631 150.132C304.783 150.132 305.647 149.808 306.223 149.16C306.823 148.488 307.219 147.624 307.411 146.568C307.603 145.488 307.699 144.132 307.699 142.5ZM318.8 142.5C318.8 138.372 319.592 135.12 321.176 132.744C322.784 130.368 325.364 129.18 328.916 129.18C332.468 129.18 335.036 130.368 336.62 132.744C338.228 135.12 339.032 138.372 339.032 142.5C339.032 146.676 338.228 149.952 336.62 152.328C335.036 154.704 332.468 155.892 328.916 155.892C325.364 155.892 322.784 154.704 321.176 152.328C319.592 149.952 318.8 146.676 318.8 142.5ZM332.984 142.5C332.984 140.076 332.72 138.216 332.192 136.92C331.664 135.6 330.572 134.94 328.916 134.94C327.26 134.94 326.168 135.6 325.64 136.92C325.112 138.216 324.848 140.076 324.848 142.5C324.848 144.132 324.944 145.488 325.136 146.568C325.328 147.624 325.712 148.488 326.288 149.16C326.888 149.808 327.764 150.132 328.916 150.132C330.068 150.132 330.932 149.808 331.508 149.16C332.108 148.488 332.504 147.624 332.696 146.568C332.888 145.488 332.984 144.132 332.984 142.5ZM344.084 142.5C344.084 138.372 344.876 135.12 346.46 132.744C348.068 130.368 350.648 129.18 354.2 129.18C357.752 129.18 360.32 130.368 361.904 132.744C363.512 135.12 364.316 138.372 364.316 142.5C364.316 146.676 363.512 149.952 361.904 152.328C360.32 154.704 357.752 155.892 354.2 155.892C350.648 155.892 348.068 154.704 346.46 152.328C344.876 149.952 344.084 146.676 344.084 142.5ZM358.268 142.5C358.268 140.076 358.004 138.216 357.476 136.92C356.948 135.6 355.856 134.94 354.2 134.94C352.544 134.94 351.452 135.6 350.924 136.92C350.396 138.216 350.132 140.076 350.132 142.5C350.132 144.132 350.228 145.488 350.42 146.568C350.612 147.624 350.996 148.488 351.572 149.16C352.172 149.808 353.048 150.132 354.2 150.132C355.352 150.132 356.216 149.808 356.792 149.16C357.392 148.488 357.788 147.624 357.98 146.568C358.172 145.488 358.268 144.132 358.268 142.5Z" fill="black"/>
<path d="M269 258C269 301.078 234.078 336 191 336C147.922 336 113 301.078 113 258C113 214.922 147.922 180 191 180C234.078 180 269 214.922 269 258ZM126.288 258C126.288 293.739 155.261 322.712 191 322.712C226.739 322.712 255.712 293.739 255.712 258C255.712 222.261 226.739 193.288 191 193.288C155.261 193.288 126.288 222.261 126.288 258Z" fill="#348727"/>
<g filter="url(#filter1_f_1966_807)">
<path d="M191 180C208.17 180 224.861 185.666 238.483 196.118C252.106 206.571 261.898 221.227 266.342 237.812C270.786 254.398 269.633 271.986 263.063 287.849C256.492 303.713 244.87 316.965 230 325.55L222.999 313.423C235.199 306.379 244.735 295.506 250.126 282.491C255.517 269.475 256.463 255.044 252.817 241.436C249.171 227.828 241.136 215.804 229.959 207.227C218.782 198.651 205.088 194.002 191 194.002V180Z" fill="#A8FF9A"/>
</g>
<path d="M191 180C208.17 180 224.861 185.666 238.483 196.118C252.106 206.571 261.898 221.227 266.342 237.812C270.786 254.398 269.633 271.986 263.063 287.849C256.492 303.713 244.87 316.965 230 325.55L223.149 313.684C235.407 306.607 244.987 295.683 250.404 282.606C255.821 269.529 256.771 255.03 253.108 241.358C249.444 227.686 241.372 215.605 230.142 206.989C218.913 198.372 205.154 193.702 191 193.702V180Z" fill="#92FF80"/>
<path d="M160.688 248.744C160.368 247.4 159.808 246.392 159.008 245.72C158.24 245.048 157.12 244.712 155.648 244.712C153.44 244.712 151.808 245.608 150.752 247.4C149.728 249.16 149.2 252.04 149.168 256.04C149.936 254.76 151.056 253.768 152.528 253.064C154 252.328 155.6 251.96 157.328 251.96C159.408 251.96 161.248 252.408 162.848 253.304C164.448 254.2 165.696 255.512 166.592 257.24C167.488 258.936 167.936 260.984 167.936 263.384C167.936 265.656 167.472 267.688 166.544 269.48C165.648 271.24 164.32 272.616 162.56 273.608C160.8 274.6 158.704 275.096 156.272 275.096C152.944 275.096 150.32 274.36 148.4 272.888C146.512 271.416 145.184 269.368 144.416 266.744C143.68 264.088 143.312 260.824 143.312 256.952C143.312 251.096 144.32 246.68 146.336 243.704C148.352 240.696 151.536 239.192 155.888 239.192C159.248 239.192 161.856 240.104 163.712 241.928C165.568 243.752 166.64 246.024 166.928 248.744H160.688ZM155.792 257.48C154.096 257.48 152.672 257.976 151.52 258.968C150.368 259.96 149.792 261.4 149.792 263.288C149.792 265.176 150.32 266.664 151.376 267.752C152.464 268.84 153.984 269.384 155.936 269.384C157.664 269.384 159.024 268.856 160.016 267.8C161.04 266.744 161.552 265.32 161.552 263.528C161.552 261.672 161.056 260.2 160.064 259.112C159.104 258.024 157.68 257.48 155.792 257.48ZM173.247 257.048C173.247 251.512 174.239 247.176 176.223 244.04C178.239 240.904 181.567 239.336 186.207 239.336C190.847 239.336 194.159 240.904 196.143 244.04C198.159 247.176 199.167 251.512 199.167 257.048C199.167 262.616 198.159 266.984 196.143 270.152C194.159 273.32 190.847 274.904 186.207 274.904C181.567 274.904 178.239 273.32 176.223 270.152C174.239 266.984 173.247 262.616 173.247 257.048ZM192.543 257.048C192.543 254.68 192.383 252.696 192.063 251.096C191.775 249.464 191.167 248.136 190.239 247.112C189.343 246.088 187.999 245.576 186.207 245.576C184.415 245.576 183.055 246.088 182.127 247.112C181.231 248.136 180.623 249.464 180.303 251.096C180.015 252.696 179.871 254.68 179.871 257.048C179.871 259.48 180.015 261.528 180.303 263.192C180.591 264.824 181.199 266.152 182.127 267.176C183.055 268.168 184.415 268.664 186.207 268.664C187.999 268.664 189.359 268.168 190.287 267.176C191.215 266.152 191.823 264.824 192.111 263.192C192.399 261.528 192.543 259.48 192.543 257.048ZM203.51 248.6C203.51 246.168 204.214 244.264 205.622 242.888C207.062 241.512 208.902 240.824 211.142 240.824C213.382 240.824 215.206 241.512 216.614 242.888C218.054 244.264 218.774 246.168 218.774 248.6C218.774 251.064 218.054 252.984 216.614 254.36C215.206 255.736 213.382 256.424 211.142 256.424C208.902 256.424 207.062 255.736 205.622 254.36C204.214 252.984 203.51 251.064 203.51 248.6ZM234.326 241.4L215.462 275H208.934L227.75 241.4H234.326ZM211.094 244.856C209.334 244.856 208.454 246.104 208.454 248.6C208.454 251.128 209.334 252.392 211.094 252.392C211.958 252.392 212.63 252.088 213.11 251.48C213.59 250.84 213.83 249.88 213.83 248.6C213.83 246.104 212.918 244.856 211.094 244.856ZM224.582 267.752C224.582 265.288 225.286 263.384 226.694 262.04C228.134 260.664 229.974 259.976 232.214 259.976C234.454 259.976 236.262 260.664 237.638 262.04C239.046 263.384 239.75 265.288 239.75 267.752C239.75 270.216 239.046 272.136 237.638 273.512C236.262 274.888 234.454 275.576 232.214 275.576C229.942 275.576 228.102 274.888 226.694 273.512C225.286 272.136 224.582 270.216 224.582 267.752ZM232.166 264.008C230.342 264.008 229.43 265.256 229.43 267.752C229.43 270.28 230.342 271.544 232.166 271.544C233.958 271.544 234.854 270.28 234.854 267.752C234.854 265.256 233.958 264.008 232.166 264.008Z" fill="black"/>
<path d="M470.293 117.293C469.902 117.683 469.902 118.317 470.293 118.707C470.683 119.098 471.317 119.098 471.707 118.707L470.293 117.293ZM482 108C482 107.448 481.552 107 481 107L472 107C471.448 107 471 107.448 471 108C471 108.552 471.448 109 472 109L480 109L480 117C480 117.552 480.448 118 481 118C481.552 118 482 117.552 482 117L482 108ZM471.707 118.707L481.707 108.707L480.293 107.293L470.293 117.293L471.707 118.707Z" fill="black"/>
<defs>
<filter id="filter0_d_1966_807" x="0" y="0" width="589" height="442" filterUnits="userSpaceOnUse" color-interpolation-filters="sRGB">
<feFlood flood-opacity="0" result="BackgroundImageFix"/>
<feColorMatrix in="SourceAlpha" type="matrix" values="0 0 0 0 0 0 0 0 0 0 0 0 0 0 0 0 0 0 127 0" result="hardAlpha"/>
<feOffset/>
<feGaussianBlur stdDeviation="44"/>
<feComposite in2="hardAlpha" operator="out"/>
<feColorMatrix type="matrix" values="0 0 0 0 0.908648 0 0 0 0 0.908648 0 0 0 0 0.908648 0 0 0 1 0"/>
<feBlend mode="normal" in2="BackgroundImageFix" result="effect1_dropShadow_1966_807"/>
<feBlend mode="normal" in="SourceGraphic" in2="effect1_dropShadow_1966_807" result="shape"/>
</filter>
<filter id="filter1_f_1966_807" x="181" y="170" width="98" height="165.55" filterUnits="userSpaceOnUse" color-interpolation-filters="sRGB">
<feFlood flood-opacity="0" result="BackgroundImageFix"/>
<feBlend mode="normal" in="SourceGraphic" in2="BackgroundImageFix" result="shape"/>
<feGaussianBlur stdDeviation="5" result="effect1_foregroundBlur_1966_807"/>
</filter>
</defs>
</svg>
