<svg width="30" height="30" viewBox="0 0 30 30" fill="none" xmlns="http://www.w3.org/2000/svg">
<path fill-rule="evenodd" clip-rule="evenodd" d="M12.583 1.48082C13.6599 -0.49361 16.3401 -0.493605 17.417 1.48082L20.7151 7.52738C21.0191 8.08472 21.5445 8.46506 22.1435 8.56129L27.6201 9.44127C30.0074 9.82486 30.8447 13.0314 28.9856 14.67L24.9952 18.187C24.4351 18.6807 24.1718 19.4593 24.3078 20.2194L25.4256 26.4641C25.8634 28.9103 23.4496 30.8108 21.3785 29.6507L15.93 26.5987C15.3479 26.2726 14.6521 26.2726 14.07 26.5987L8.62153 29.6507C6.5504 30.8108 4.13656 28.9103 4.57442 26.4641L5.69218 20.2194C5.82823 19.4593 5.56488 18.6807 5.0048 18.187L1.01444 14.67C-0.844749 13.0314 -0.00735662 9.82485 2.37992 9.44127L7.85655 8.56129C8.45546 8.46506 8.98091 8.08472 9.2849 7.52738L12.583 1.48082ZM15.3453 2.75971C15.1914 2.47765 14.8086 2.47765 14.6547 2.75971L11.3567 8.80626C10.6879 10.0324 9.53189 10.8692 8.21426 11.0809L2.73764 11.9609C2.3966 12.0157 2.27698 12.4737 2.54257 12.7078L6.53294 16.2248C7.76512 17.3108 8.34449 19.0239 8.04517 20.6961L6.92741 26.9408C6.86486 27.2902 7.20969 27.5617 7.50557 27.396L12.9541 24.344C14.2347 23.6267 15.7653 23.6267 17.0459 24.344L22.4944 27.396C22.7903 27.5617 23.1351 27.2902 23.0726 26.9408L21.9548 20.6961C21.6555 19.0239 22.2349 17.3108 23.4671 16.2248L27.4574 12.7078C27.723 12.4737 27.6034 12.0157 27.2624 11.9609L21.7857 11.0809C20.4681 10.8692 19.3121 10.0324 18.6433 8.80627L15.3453 2.75971Z" fill="black"/>
</svg>
