<svg width="197" height="196" viewBox="0 0 197 196" fill="none" xmlns="http://www.w3.org/2000/svg">
<rect width="197" height="196" rx="10" fill="#F1F9FF"/>
<path d="M117.5 77.6556C117.5 91.4628 106.307 102.656 92.5 102.656C78.6929 102.656 67.5 91.4628 67.5 77.6556C67.5 63.8485 78.6929 52.6556 92.5 52.6556C106.307 52.6556 117.5 63.8485 117.5 77.6556ZM73.75 77.6556C73.75 88.011 82.1447 96.4056 92.5 96.4056C102.855 96.4056 111.25 88.011 111.25 77.6556C111.25 67.3003 102.855 58.9056 92.5 58.9056C82.1447 58.9056 73.75 67.3003 73.75 77.6556Z" fill="#C7E8FF"/>
<line x1="109.5" y1="61.6875" x2="123.843" y2="47.3444" stroke="#C7E8FF" stroke-width="8" stroke-linecap="round"/>
<path d="M86.872 147.088C86.872 147.984 86.656 148.824 86.224 149.608C85.808 150.392 85.144 151.024 84.232 151.504C83.336 151.984 82.2 152.224 80.824 152.224H78.016V158.656H74.656V141.904H80.824C82.12 141.904 83.224 142.128 84.136 142.576C85.048 143.024 85.728 143.64 86.176 144.424C86.64 145.208 86.872 146.096 86.872 147.088ZM80.68 149.512C81.608 149.512 82.296 149.304 82.744 148.888C83.192 148.456 83.416 147.856 83.416 147.088C83.416 145.456 82.504 144.64 80.68 144.64H78.016V149.512H80.68ZM93.8176 147.424C94.2496 146.72 94.8096 146.168 95.4976 145.768C96.2016 145.368 97.0016 145.168 97.8976 145.168V148.696H97.0096C95.9536 148.696 95.1536 148.944 94.6096 149.44C94.0816 149.936 93.8176 150.8 93.8176 152.032V158.656H90.4576V145.36H93.8176V147.424ZM103.065 143.776C102.473 143.776 101.977 143.592 101.577 143.224C101.193 142.84 101.001 142.368 101.001 141.808C101.001 141.248 101.193 140.784 101.577 140.416C101.977 140.032 102.473 139.84 103.065 139.84C103.657 139.84 104.145 140.032 104.529 140.416C104.929 140.784 105.129 141.248 105.129 141.808C105.129 142.368 104.929 142.84 104.529 143.224C104.145 143.592 103.657 143.776 103.065 143.776ZM104.721 145.36V158.656H101.361V145.36H104.721ZM108.376 151.96C108.376 150.616 108.64 149.424 109.168 148.384C109.712 147.344 110.44 146.544 111.352 145.984C112.28 145.424 113.312 145.144 114.448 145.144C115.44 145.144 116.304 145.344 117.04 145.744C117.792 146.144 118.392 146.648 118.84 147.256V145.36H122.224V158.656H118.84V156.712C118.408 157.336 117.808 157.856 117.04 158.272C116.288 158.672 115.416 158.872 114.424 158.872C113.304 158.872 112.28 158.584 111.352 158.008C110.44 157.432 109.712 156.624 109.168 155.584C108.64 154.528 108.376 153.32 108.376 151.96ZM118.84 152.008C118.84 151.192 118.68 150.496 118.36 149.92C118.04 149.328 117.608 148.88 117.064 148.576C116.52 148.256 115.936 148.096 115.312 148.096C114.688 148.096 114.112 148.248 113.584 148.552C113.056 148.856 112.624 149.304 112.288 149.896C111.968 150.472 111.808 151.16 111.808 151.96C111.808 152.76 111.968 153.464 112.288 154.072C112.624 154.664 113.056 155.12 113.584 155.44C114.128 155.76 114.704 155.92 115.312 155.92C115.936 155.92 116.52 155.768 117.064 155.464C117.608 155.144 118.04 154.696 118.36 154.12C118.68 153.528 118.84 152.824 118.84 152.008Z" fill="#A8A8A8"/>
</svg>
