<svg width="196" height="199" viewBox="0 0 196 199" fill="none" xmlns="http://www.w3.org/2000/svg">
<path d="M0 10C0 4.47715 4.47715 0 10 0H186C191.523 0 196 4.47715 196 10V189C196 194.523 191.523 199 186 199H10C4.47715 199 0 194.523 0 189V10Z" fill="#F7DFFF"/>
<path d="M79 73C79 59.1929 90.1929 48 104 48C117.807 48 129 59.1929 129 73C129 86.8071 117.807 98 104 98C90.1929 98 79 86.8071 79 73ZM122.75 73C122.75 62.6447 114.355 54.25 104 54.25C93.6447 54.25 85.25 62.6447 85.25 73C85.25 83.3553 93.6447 91.75 104 91.75C114.355 91.75 122.75 83.3553 122.75 73Z" fill="#F0C7FF"/>
<line x1="87" y1="88.9681" x2="72.6569" y2="103.311" stroke="#F0C7FF" stroke-width="8" stroke-linecap="round"/>
<line x1="85.0503" y1="105" x2="70" y2="89.9498" stroke="#F0C7FF" stroke-width="7" stroke-linecap="round"/>
<path d="M74.548 144.248L69.868 161H65.908L62.764 149.072L59.476 161L55.54 161.024L51.028 144.248H54.628L57.58 157.256L60.988 144.248H64.732L67.948 157.184L70.924 144.248H74.548ZM77.0779 154.304C77.0779 152.96 77.3419 151.768 77.8699 150.728C78.4139 149.688 79.1419 148.888 80.0539 148.328C80.9819 147.768 82.0139 147.488 83.1499 147.488C84.1419 147.488 85.0059 147.688 85.7419 148.088C86.4939 148.488 87.0939 148.992 87.5419 149.6V147.704H90.9259V161H87.5419V159.056C87.1099 159.68 86.5099 160.2 85.7419 160.616C84.9899 161.016 84.1179 161.216 83.1259 161.216C82.0059 161.216 80.9819 160.928 80.0539 160.352C79.1419 159.776 78.4139 158.968 77.8699 157.928C77.3419 156.872 77.0779 155.664 77.0779 154.304ZM87.5419 154.352C87.5419 153.536 87.3819 152.84 87.0619 152.264C86.7419 151.672 86.3099 151.224 85.7659 150.92C85.2219 150.6 84.6379 150.44 84.0139 150.44C83.3899 150.44 82.8139 150.592 82.2859 150.896C81.7579 151.2 81.3259 151.648 80.9899 152.24C80.6699 152.816 80.5099 153.504 80.5099 154.304C80.5099 155.104 80.6699 155.808 80.9899 156.416C81.3259 157.008 81.7579 157.464 82.2859 157.784C82.8299 158.104 83.4059 158.264 84.0139 158.264C84.6379 158.264 85.2219 158.112 85.7659 157.808C86.3099 157.488 86.7419 157.04 87.0619 156.464C87.3819 155.872 87.5419 155.168 87.5419 154.352ZM102.776 147.512C104.36 147.512 105.64 148.016 106.616 149.024C107.592 150.016 108.08 151.408 108.08 153.2V161H104.72V153.656C104.72 152.6 104.456 151.792 103.928 151.232C103.4 150.656 102.68 150.368 101.768 150.368C100.84 150.368 100.104 150.656 99.5596 151.232C99.0316 151.792 98.7676 152.6 98.7676 153.656V161H95.4076V147.704H98.7676V149.36C99.2156 148.784 99.7836 148.336 100.472 148.016C101.176 147.68 101.944 147.512 102.776 147.512ZM114.179 146.12C113.587 146.12 113.091 145.936 112.691 145.568C112.307 145.184 112.115 144.712 112.115 144.152C112.115 143.592 112.307 143.128 112.691 142.76C113.091 142.376 113.587 142.184 114.179 142.184C114.771 142.184 115.259 142.376 115.643 142.76C116.043 143.128 116.243 143.592 116.243 144.152C116.243 144.712 116.043 145.184 115.643 145.568C115.259 145.936 114.771 146.12 114.179 146.12ZM115.835 147.704V161H112.475V147.704H115.835ZM124.266 150.464V156.896C124.266 157.344 124.37 157.672 124.578 157.88C124.802 158.072 125.17 158.168 125.682 158.168H127.242V161H125.13C122.298 161 120.882 159.624 120.882 156.872V150.464H119.298V147.704H120.882V144.416H124.266V147.704H127.242V150.464H124.266ZM129.995 154.304C129.995 152.96 130.259 151.768 130.787 150.728C131.331 149.688 132.059 148.888 132.971 148.328C133.899 147.768 134.931 147.488 136.067 147.488C137.059 147.488 137.923 147.688 138.659 148.088C139.411 148.488 140.011 148.992 140.459 149.6V147.704H143.843V161H140.459V159.056C140.027 159.68 139.427 160.2 138.659 160.616C137.907 161.016 137.035 161.216 136.043 161.216C134.923 161.216 133.899 160.928 132.971 160.352C132.059 159.776 131.331 158.968 130.787 157.928C130.259 156.872 129.995 155.664 129.995 154.304ZM140.459 154.352C140.459 153.536 140.299 152.84 139.979 152.264C139.659 151.672 139.227 151.224 138.683 150.92C138.139 150.6 137.555 150.44 136.931 150.44C136.307 150.44 135.731 150.592 135.203 150.896C134.675 151.2 134.243 151.648 133.907 152.24C133.587 152.816 133.427 153.504 133.427 154.304C133.427 155.104 133.587 155.808 133.907 156.416C134.243 157.008 134.675 157.464 135.203 157.784C135.747 158.104 136.323 158.264 136.931 158.264C137.555 158.264 138.139 158.112 138.683 157.808C139.227 157.488 139.659 157.04 139.979 156.464C140.299 155.872 140.459 155.168 140.459 154.352Z" fill="#A8A8A8"/>
</svg>
