<svg width="197" height="123" viewBox="0 0 197 123" fill="none" xmlns="http://www.w3.org/2000/svg">
<rect width="197" height="123" rx="10" fill="url(#paint0_linear_2110_474)"/>
<path d="M15.59 57.545V58.655H12.74V68H11.375V58.655H8.51V57.545H15.59ZM21.6052 68.135C20.8352 68.135 20.1352 67.96 19.5052 67.61C18.8852 67.26 18.3952 66.765 18.0352 66.125C17.6852 65.475 17.5102 64.725 17.5102 63.875C17.5102 63.035 17.6902 62.295 18.0502 61.655C18.4202 61.005 18.9202 60.51 19.5502 60.17C20.1802 59.82 20.8852 59.645 21.6652 59.645C22.4452 59.645 23.1502 59.82 23.7802 60.17C24.4102 60.51 24.9052 61 25.2652 61.64C25.6352 62.28 25.8202 63.025 25.8202 63.875C25.8202 64.725 25.6302 65.475 25.2502 66.125C24.8802 66.765 24.3752 67.26 23.7352 67.61C23.0952 67.96 22.3852 68.135 21.6052 68.135ZM21.6052 66.935C22.0952 66.935 22.5552 66.82 22.9852 66.59C23.4152 66.36 23.7602 66.015 24.0202 65.555C24.2902 65.095 24.4252 64.535 24.4252 63.875C24.4252 63.215 24.2952 62.655 24.0352 62.195C23.7752 61.735 23.4352 61.395 23.0152 61.175C22.5952 60.945 22.1402 60.83 21.6502 60.83C21.1502 60.83 20.6902 60.945 20.2702 61.175C19.8602 61.395 19.5302 61.735 19.2802 62.195C19.0302 62.655 18.9052 63.215 18.9052 63.875C18.9052 64.545 19.0252 65.11 19.2652 65.57C19.5152 66.03 19.8452 66.375 20.2552 66.605C20.6652 66.825 21.1152 66.935 21.6052 66.935ZM30.03 60.905V65.75C30.03 66.15 30.115 66.435 30.285 66.605C30.455 66.765 30.75 66.845 31.17 66.845H32.175V68H30.945C30.185 68 29.615 67.825 29.235 67.475C28.855 67.125 28.665 66.55 28.665 65.75V60.905H27.6V59.78H28.665V57.71H30.03V59.78H32.175V60.905H30.03ZM34.0688 63.86C34.0688 63.02 34.2388 62.285 34.5788 61.655C34.9188 61.015 35.3838 60.52 35.9738 60.17C36.5738 59.82 37.2388 59.645 37.9688 59.645C38.6888 59.645 39.3138 59.8 39.8438 60.11C40.3738 60.42 40.7688 60.81 41.0288 61.28V59.78H42.4088V68H41.0288V66.47C40.7588 66.95 40.3538 67.35 39.8138 67.67C39.2838 67.98 38.6638 68.135 37.9538 68.135C37.2238 68.135 36.5638 67.955 35.9738 67.595C35.3838 67.235 34.9188 66.73 34.5788 66.08C34.2388 65.43 34.0688 64.69 34.0688 63.86ZM41.0288 63.875C41.0288 63.255 40.9038 62.715 40.6538 62.255C40.4038 61.795 40.0638 61.445 39.6338 61.205C39.2138 60.955 38.7488 60.83 38.2388 60.83C37.7288 60.83 37.2638 60.95 36.8438 61.19C36.4238 61.43 36.0888 61.78 35.8388 62.24C35.5888 62.7 35.4638 63.24 35.4638 63.86C35.4638 64.49 35.5888 65.04 35.8388 65.51C36.0888 65.97 36.4238 66.325 36.8438 66.575C37.2638 66.815 37.7288 66.935 38.2388 66.935C38.7488 66.935 39.2138 66.815 39.6338 66.575C40.0638 66.325 40.4038 65.97 40.6538 65.51C40.9038 65.04 41.0288 64.495 41.0288 63.875ZM46.8305 56.9V68H45.4655V56.9H46.8305ZM56.021 61.31C56.301 60.82 56.711 60.42 57.251 60.11C57.791 59.8 58.406 59.645 59.096 59.645C59.836 59.645 60.501 59.82 61.091 60.17C61.681 60.52 62.146 61.015 62.486 61.655C62.826 62.285 62.996 63.02 62.996 63.86C62.996 64.69 62.826 65.43 62.486 66.08C62.146 66.73 61.676 67.235 61.076 67.595C60.486 67.955 59.826 68.135 59.096 68.135C58.386 68.135 57.761 67.98 57.221 67.67C56.691 67.36 56.291 66.965 56.021 66.485V68H54.656V56.9H56.021V61.31ZM61.601 63.86C61.601 63.24 61.476 62.7 61.226 62.24C60.976 61.78 60.636 61.43 60.206 61.19C59.786 60.95 59.321 60.83 58.811 60.83C58.311 60.83 57.846 60.955 57.416 61.205C56.996 61.445 56.656 61.8 56.396 62.27C56.146 62.73 56.021 63.265 56.021 63.875C56.021 64.495 56.146 65.04 56.396 65.51C56.656 65.97 56.996 66.325 57.416 66.575C57.846 66.815 58.311 66.935 58.811 66.935C59.321 66.935 59.786 66.815 60.206 66.575C60.636 66.325 60.976 65.97 61.226 65.51C61.476 65.04 61.601 64.49 61.601 63.86ZM69.1277 68.135C68.3577 68.135 67.6577 67.96 67.0277 67.61C66.4077 67.26 65.9177 66.765 65.5577 66.125C65.2077 65.475 65.0327 64.725 65.0327 63.875C65.0327 63.035 65.2127 62.295 65.5727 61.655C65.9427 61.005 66.4427 60.51 67.0727 60.17C67.7027 59.82 68.4077 59.645 69.1877 59.645C69.9677 59.645 70.6727 59.82 71.3027 60.17C71.9327 60.51 72.4277 61 72.7877 61.64C73.1577 62.28 73.3427 63.025 73.3427 63.875C73.3427 64.725 73.1527 65.475 72.7727 66.125C72.4027 66.765 71.8977 67.26 71.2577 67.61C70.6177 67.96 69.9077 68.135 69.1277 68.135ZM69.1277 66.935C69.6177 66.935 70.0777 66.82 70.5077 66.59C70.9377 66.36 71.2827 66.015 71.5427 65.555C71.8127 65.095 71.9477 64.535 71.9477 63.875C71.9477 63.215 71.8177 62.655 71.5577 62.195C71.2977 61.735 70.9577 61.395 70.5377 61.175C70.1177 60.945 69.6627 60.83 69.1727 60.83C68.6727 60.83 68.2127 60.945 67.7927 61.175C67.3827 61.395 67.0527 61.735 66.8027 62.195C66.5527 62.655 66.4277 63.215 66.4277 63.875C66.4277 64.545 66.5477 65.11 66.7877 65.57C67.0377 66.03 67.3677 66.375 67.7777 66.605C68.1877 66.825 68.6377 66.935 69.1277 66.935ZM79.4724 68.135C78.7024 68.135 78.0024 67.96 77.3724 67.61C76.7524 67.26 76.2624 66.765 75.9024 66.125C75.5524 65.475 75.3774 64.725 75.3774 63.875C75.3774 63.035 75.5574 62.295 75.9174 61.655C76.2874 61.005 76.7874 60.51 77.4174 60.17C78.0474 59.82 78.7524 59.645 79.5324 59.645C80.3124 59.645 81.0174 59.82 81.6474 60.17C82.2774 60.51 82.7724 61 83.1324 61.64C83.5024 62.28 83.6874 63.025 83.6874 63.875C83.6874 64.725 83.4974 65.475 83.1174 66.125C82.7474 66.765 82.2424 67.26 81.6024 67.61C80.9624 67.96 80.2524 68.135 79.4724 68.135ZM79.4724 66.935C79.9624 66.935 80.4224 66.82 80.8524 66.59C81.2824 66.36 81.6274 66.015 81.8874 65.555C82.1574 65.095 82.2924 64.535 82.2924 63.875C82.2924 63.215 82.1624 62.655 81.9024 62.195C81.6424 61.735 81.3024 61.395 80.8824 61.175C80.4624 60.945 80.0074 60.83 79.5174 60.83C79.0174 60.83 78.5574 60.945 78.1374 61.175C77.7274 61.395 77.3974 61.735 77.1474 62.195C76.8974 62.655 76.7724 63.215 76.7724 63.875C76.7724 64.545 76.8924 65.11 77.1324 65.57C77.3824 66.03 77.7124 66.375 78.1224 66.605C78.5324 66.825 78.9824 66.935 79.4724 66.935ZM90.8221 68L87.5971 64.37V68H86.2321V56.9H87.5971V63.425L90.7621 59.78H92.6671L88.7971 63.875L92.6821 68H90.8221ZM95.4069 58.445C95.1469 58.445 94.9269 58.355 94.7469 58.175C94.5669 57.995 94.4769 57.775 94.4769 57.515C94.4769 57.255 94.5669 57.035 94.7469 56.855C94.9269 56.675 95.1469 56.585 95.4069 56.585C95.6569 56.585 95.8669 56.675 96.0369 56.855C96.2169 57.035 96.3069 57.255 96.3069 57.515C96.3069 57.775 96.2169 57.995 96.0369 58.175C95.8669 58.355 95.6569 58.445 95.4069 58.445ZM96.0669 59.78V68H94.7019V59.78H96.0669ZM103.148 59.63C104.148 59.63 104.958 59.935 105.578 60.545C106.198 61.145 106.508 62.015 106.508 63.155V68H105.158V63.35C105.158 62.53 104.953 61.905 104.543 61.475C104.133 61.035 103.573 60.815 102.863 60.815C102.143 60.815 101.568 61.04 101.138 61.49C100.718 61.94 100.508 62.595 100.508 63.455V68H99.1433V59.78H100.508V60.95C100.778 60.53 101.143 60.205 101.603 59.975C102.073 59.745 102.588 59.63 103.148 59.63ZM112.878 59.645C113.588 59.645 114.208 59.8 114.738 60.11C115.278 60.42 115.678 60.81 115.938 61.28V59.78H117.318V68.18C117.318 68.93 117.158 69.595 116.838 70.175C116.518 70.765 116.058 71.225 115.458 71.555C114.868 71.885 114.178 72.05 113.388 72.05C112.308 72.05 111.408 71.795 110.688 71.285C109.968 70.775 109.543 70.08 109.413 69.2H110.763C110.913 69.7 111.223 70.1 111.693 70.4C112.163 70.71 112.728 70.865 113.388 70.865C114.138 70.865 114.748 70.63 115.218 70.16C115.698 69.69 115.938 69.03 115.938 68.18V66.455C115.668 66.935 115.268 67.335 114.738 67.655C114.208 67.975 113.588 68.135 112.878 68.135C112.148 68.135 111.483 67.955 110.883 67.595C110.293 67.235 109.828 66.73 109.488 66.08C109.148 65.43 108.978 64.69 108.978 63.86C108.978 63.02 109.148 62.285 109.488 61.655C109.828 61.015 110.293 60.52 110.883 60.17C111.483 59.82 112.148 59.645 112.878 59.645ZM115.938 63.875C115.938 63.255 115.813 62.715 115.563 62.255C115.313 61.795 114.973 61.445 114.543 61.205C114.123 60.955 113.658 60.83 113.148 60.83C112.638 60.83 112.173 60.95 111.753 61.19C111.333 61.43 110.998 61.78 110.748 62.24C110.498 62.7 110.373 63.24 110.373 63.86C110.373 64.49 110.498 65.04 110.748 65.51C110.998 65.97 111.333 66.325 111.753 66.575C112.173 66.815 112.638 66.935 113.148 66.935C113.658 66.935 114.123 66.815 114.543 66.575C114.973 66.325 115.313 65.97 115.563 65.51C115.813 65.04 115.938 64.495 115.938 63.875Z" fill="white"/>
<path d="M14.88 102.44C15.0507 103.379 15.4347 104.104 16.032 104.616C16.6507 105.107 17.472 105.352 18.496 105.352C19.8187 105.352 20.7787 104.808 21.376 103.72C21.9733 102.611 22.272 100.755 22.272 98.152C21.7813 98.8347 21.088 99.368 20.192 99.752C19.3173 100.136 18.368 100.328 17.344 100.328C15.9787 100.328 14.7413 100.051 13.632 99.496C12.544 98.92 11.68 98.0773 11.04 96.968C10.4 95.8373 10.08 94.472 10.08 92.872C10.08 90.504 10.784 88.6267 12.192 87.24C13.6 85.832 15.52 85.128 17.952 85.128C20.9813 85.128 23.1147 86.0987 24.352 88.04C25.6107 89.9813 26.24 92.904 26.24 96.808C26.24 99.5813 25.9947 101.853 25.504 103.624C25.0347 105.395 24.2133 106.739 23.04 107.656C21.888 108.573 20.3093 109.032 18.304 109.032C16.7253 109.032 15.3813 108.733 14.272 108.136C13.1627 107.517 12.3093 106.717 11.712 105.736C11.136 104.733 10.8053 103.635 10.72 102.44H14.88ZM18.272 96.68C19.3813 96.68 20.256 96.3387 20.896 95.656C21.536 94.9733 21.856 94.056 21.856 92.904C21.856 91.6453 21.5147 90.6747 20.832 89.992C20.1707 89.288 19.264 88.936 18.112 88.936C16.96 88.936 16.0427 89.2987 15.36 90.024C14.6987 90.728 14.368 91.6667 14.368 92.84C14.368 93.9707 14.688 94.8987 15.328 95.624C15.9893 96.328 16.9707 96.68 18.272 96.68ZM31.3273 97.032C31.3273 93.3413 31.9886 90.4507 33.3113 88.36C34.6553 86.2693 36.8739 85.224 39.9673 85.224C43.0606 85.224 45.2686 86.2693 46.5913 88.36C47.9353 90.4507 48.6073 93.3413 48.6073 97.032C48.6073 100.744 47.9353 103.656 46.5913 105.768C45.2686 107.88 43.0606 108.936 39.9673 108.936C36.8739 108.936 34.6553 107.88 33.3113 105.768C31.9886 103.656 31.3273 100.744 31.3273 97.032ZM44.1913 97.032C44.1913 95.4533 44.0846 94.1307 43.8713 93.064C43.6793 91.976 43.2739 91.0907 42.6553 90.408C42.0579 89.7253 41.1619 89.384 39.9673 89.384C38.7726 89.384 37.8659 89.7253 37.2473 90.408C36.6499 91.0907 36.2446 91.976 36.0313 93.064C35.8393 94.1307 35.7433 95.4533 35.7433 97.032C35.7433 98.6533 35.8393 100.019 36.0313 101.128C36.2233 102.216 36.6286 103.101 37.2473 103.784C37.8659 104.445 38.7726 104.776 39.9673 104.776C41.1619 104.776 42.0686 104.445 42.6873 103.784C43.3059 103.101 43.7113 102.216 43.9033 101.128C44.0953 100.019 44.1913 98.6533 44.1913 97.032ZM53.6788 91.816C53.7854 89.6827 54.5321 88.04 55.9188 86.888C57.3268 85.7147 59.1721 85.128 61.4548 85.128C63.0121 85.128 64.3454 85.4053 65.4548 85.96C66.5641 86.4933 67.3961 87.2293 67.9508 88.168C68.5268 89.0853 68.8148 90.1307 68.8148 91.304C68.8148 92.648 68.4628 93.7893 67.7588 94.728C67.0761 95.6453 66.2548 96.264 65.2948 96.584V96.712C66.5321 97.096 67.4921 97.7787 68.1748 98.76C68.8788 99.7413 69.2308 101 69.2308 102.536C69.2308 103.816 68.9321 104.957 68.3348 105.96C67.7588 106.963 66.8948 107.752 65.7428 108.328C64.6121 108.883 63.2468 109.16 61.6468 109.16C59.2361 109.16 57.2734 108.552 55.7588 107.336C54.2441 106.12 53.4441 104.328 53.3588 101.96H57.7108C57.7534 103.005 58.1054 103.848 58.7668 104.488C59.4494 105.107 60.3774 105.416 61.5508 105.416C62.6388 105.416 63.4708 105.117 64.0468 104.52C64.6441 103.901 64.9428 103.112 64.9428 102.152C64.9428 100.872 64.5374 99.9547 63.7268 99.4C62.9161 98.8453 61.6574 98.568 59.9508 98.568H59.0228V94.888H59.9508C62.9801 94.888 64.4948 93.8747 64.4948 91.848C64.4948 90.9307 64.2174 90.216 63.6628 89.704C63.1294 89.192 62.3508 88.936 61.3268 88.936C60.3241 88.936 59.5454 89.2133 58.9908 89.768C58.4574 90.3013 58.1481 90.984 58.0628 91.816H53.6788ZM76.867 109.224C76.0563 109.224 75.3843 108.979 74.851 108.488C74.339 107.976 74.083 107.347 74.083 106.6C74.083 105.853 74.339 105.235 74.851 104.744C75.3843 104.232 76.0563 103.976 76.867 103.976C77.6563 103.976 78.307 104.232 78.819 104.744C79.331 105.235 79.587 105.853 79.587 106.6C79.587 107.347 79.331 107.976 78.819 108.488C78.307 108.979 77.6563 109.224 76.867 109.224ZM84.0915 104.456V100.936L94.5555 85.96H99.7715V100.552H102.588V104.456H99.7715V109H95.2915V104.456H84.0915ZM95.5795 90.76L89.0195 100.552H95.5795V90.76ZM119.136 91.496C118.922 90.6 118.549 89.928 118.016 89.48C117.504 89.032 116.757 88.808 115.776 88.808C114.304 88.808 113.216 89.4053 112.512 90.6C111.829 91.7733 111.477 93.6933 111.456 96.36C111.968 95.5067 112.714 94.8453 113.696 94.376C114.677 93.8853 115.744 93.64 116.896 93.64C118.282 93.64 119.509 93.9387 120.576 94.536C121.642 95.1333 122.474 96.008 123.072 97.16C123.669 98.2907 123.968 99.656 123.968 101.256C123.968 102.771 123.658 104.125 123.04 105.32C122.442 106.493 121.557 107.411 120.384 108.072C119.21 108.733 117.813 109.064 116.192 109.064C113.973 109.064 112.224 108.573 110.944 107.592C109.685 106.611 108.8 105.245 108.288 103.496C107.797 101.725 107.552 99.5493 107.552 96.968C107.552 93.064 108.224 90.12 109.568 88.136C110.912 86.1307 113.034 85.128 115.936 85.128C118.176 85.128 119.914 85.736 121.152 86.952C122.389 88.168 123.104 89.6827 123.296 91.496H119.136ZM115.872 97.32C114.741 97.32 113.792 97.6507 113.024 98.312C112.256 98.9733 111.872 99.9333 111.872 101.192C111.872 102.451 112.224 103.443 112.928 104.168C113.653 104.893 114.666 105.256 115.968 105.256C117.12 105.256 118.026 104.904 118.688 104.2C119.37 103.496 119.712 102.547 119.712 101.352C119.712 100.115 119.381 99.1333 118.72 98.408C118.08 97.6827 117.13 97.32 115.872 97.32ZM130.516 103.944C132.564 102.237 134.196 100.819 135.412 99.688C136.628 98.536 137.642 97.3413 138.452 96.104C139.263 94.8667 139.668 93.6507 139.668 92.456C139.668 91.368 139.412 90.5147 138.9 89.896C138.388 89.2773 137.599 88.968 136.532 88.968C135.466 88.968 134.644 89.3307 134.068 90.056C133.492 90.76 133.194 91.7307 133.172 92.968H128.82C128.906 90.408 129.663 88.4667 131.092 87.144C132.543 85.8213 134.378 85.16 136.596 85.16C139.028 85.16 140.895 85.8107 142.196 87.112C143.498 88.392 144.148 90.088 144.148 92.2C144.148 93.864 143.7 95.4533 142.804 96.968C141.908 98.4827 140.884 99.8053 139.732 100.936C138.58 102.045 137.076 103.389 135.22 104.968H144.66V108.68H128.852V105.352L130.516 103.944Z" fill="white"/>
<path fill-rule="evenodd" clip-rule="evenodd" d="M22.7014 13.2758C22.7014 12.4991 22.0718 11.8695 21.2951 11.8695C20.5185 11.8695 19.8889 12.4991 19.8889 13.2758V16.6816C17.0894 17.0773 14.8777 19.2916 14.5033 22.1161L14.341 23.3404C14.3135 23.5479 14.2872 23.7556 14.2621 23.9634C14.1955 24.5146 14.6298 24.9945 15.185 24.9945H46.1552C46.7104 24.9945 47.1446 24.5146 47.078 23.9634C47.0529 23.7556 47.0266 23.5479 46.9991 23.3404L46.8368 22.1161C46.4624 19.2916 44.2508 17.0774 41.4514 16.6816V13.2758C41.4514 12.4991 40.8218 11.8695 40.0451 11.8695C39.2685 11.8695 38.6389 12.4991 38.6389 13.2758V16.4026C33.3369 15.9304 28.0034 15.9304 22.7014 16.4026V13.2758ZM47.4412 28.6987C47.4248 28.1991 47.012 27.807 46.5121 27.807H14.828C14.3282 27.807 13.9154 28.1991 13.899 28.6987C13.7876 32.088 13.9935 35.4843 14.5161 38.843C14.9117 41.3856 16.9773 43.3385 19.5381 43.591L21.775 43.8116C27.6907 44.395 33.6494 44.395 39.5652 43.8116L41.802 43.591C44.3628 43.3385 46.4284 41.3856 46.8241 38.843C47.3467 35.4843 47.5526 32.088 47.4412 28.6987ZM17.0001 31C17.0001 30.4477 17.4478 30 18.0001 30H20.0001C20.5524 30 21.0001 30.4477 21.0001 31V33C21.0001 33.5522 20.5524 34 20.0001 34H18.0001C17.4478 34 17.0001 33.5522 17.0001 33V31ZM24.0001 30C23.4478 30 23.0001 30.4477 23.0001 31V33C23.0001 33.5522 23.4478 34 24.0001 34H26.0001C26.5524 34 27.0001 33.5522 27.0001 33V31C27.0001 30.4477 26.5524 30 26.0001 30H24.0001ZM29.0001 31C29.0001 30.4477 29.4478 30 30.0001 30H32.0001C32.5524 30 33.0001 30.4477 33.0001 31V33C33.0001 33.5522 32.5524 34 32.0001 34H30.0001C29.4478 34 29.0001 33.5522 29.0001 33V31ZM36.0001 30C35.4478 30 35.0001 30.4477 35.0001 31V33C35.0001 33.5522 35.4478 34 36.0001 34H38.0001C38.5524 34 39.0001 33.5522 39.0001 33V31C39.0001 30.4477 38.5524 30 38.0001 30H36.0001ZM41.0001 31C41.0001 30.4477 41.4478 30 42.0001 30H44.0001C44.5524 30 45.0001 30.4477 45.0001 31V33C45.0001 33.5522 44.5524 34 44.0001 34H42.0001C41.4478 34 41.0001 33.5522 41.0001 33V31ZM17.8001 36C17.3583 36 17.0001 36.3581 17.0001 36.8C17.0001 38.5673 18.4328 40 20.2001 40C20.6419 40 21.0001 39.6418 21.0001 39.2V37C21.0001 36.4477 20.5524 36 20.0001 36H17.8001ZM23.0001 37C23.0001 36.4477 23.4478 36 24.0001 36H26.0001C26.5524 36 27.0001 36.4477 27.0001 37V39C27.0001 39.5522 26.5524 40 26.0001 40H24.0001C23.4478 40 23.0001 39.5522 23.0001 39V37ZM30.0001 36C29.4478 36 29.0001 36.4477 29.0001 37V39C29.0001 39.5522 29.4478 40 30.0001 40H32.0001C32.5524 40 33.0001 39.5522 33.0001 39V37C33.0001 36.4477 32.5524 36 32.0001 36H30.0001ZM35.0001 37C35.0001 36.4477 35.4478 36 36.0001 36H38.0001C38.5524 36 39.0001 36.4477 39.0001 37V39C39.0001 39.5522 38.5524 40 38.0001 40H36.0001C35.4478 40 35.0001 39.5522 35.0001 39V37ZM42.0001 36C41.4478 36 41.0001 36.4477 41.0001 37V39.2C41.0001 39.6418 41.3582 40 41.8001 40C43.5674 40 45.0001 38.5673 45.0001 36.8C45.0001 36.3581 44.6419 36 44.2001 36H42.0001Z" fill="white"/>
<defs>
<linearGradient id="paint0_linear_2110_474" x1="238" y1="-39.5" x2="-48.5" y2="144" gradientUnits="userSpaceOnUse">
<stop offset="0.0766862" stop-color="#FFCCC6"/>
<stop offset="1" stop-color="#E36252"/>
</linearGradient>
</defs>
</svg>
