<svg width="111" height="98" viewBox="0 0 111 98" fill="none" xmlns="http://www.w3.org/2000/svg">
<path d="M105.789 82.8953H5.20957C3.37829 82.8953 1.89375 84.3799 1.89375 86.2112V89.527C1.89375 93.1895 4.86284 96.1586 8.52539 96.1586H102.473C106.136 96.1586 109.105 93.1895 109.105 89.527V86.2112C109.105 84.3799 107.621 82.8953 105.789 82.8953Z" stroke="black" stroke-width="2.21054"/>
<path d="M100.263 70.7401C100.263 73.8715 99.1256 76.0673 97.0773 77.6874C94.9665 79.3568 91.8116 80.4726 87.6971 81.186C80.6154 82.4139 71.1513 82.3856 60.3524 82.3534C58.5847 82.3481 56.7812 82.3427 54.9466 82.3427C51.3497 82.3427 47.8565 82.3947 44.5044 82.4446C35.6612 82.5761 27.8007 82.693 21.612 81.8027C17.3595 81.191 14.0827 80.1224 11.8824 78.3861C9.74867 76.7022 8.52519 74.3096 8.52519 70.7401C8.52519 68.0851 9.68121 65.9313 11.8938 64.1377C14.1451 62.3125 17.4785 60.8776 21.7287 59.7897C30.2236 57.6153 41.9863 56.9215 54.9466 56.9215C67.8526 56.9215 79.3386 58.3578 87.5594 60.9004C91.6755 62.1735 94.9034 63.703 97.0797 65.4142C99.2517 67.122 100.263 68.9118 100.263 70.7401Z" fill="white" stroke="black" stroke-width="2.21054"/>
<path d="M90.3153 48.9236C90.3153 51.4759 89.3976 53.0956 87.781 54.2125C86.0757 55.3907 83.492 56.0775 80.0494 56.421C76.6305 56.7622 72.5211 56.7526 67.8693 56.6538C66.5817 56.6265 65.2531 56.5923 63.8888 56.5572C60.3477 56.4661 56.567 56.3688 52.6451 56.3688C47.9472 56.3688 43.4183 56.5726 39.2308 56.761C38.5622 56.791 37.9023 56.8207 37.2518 56.8491C32.5061 57.0563 28.2835 57.1938 24.7495 56.9371C21.1909 56.6787 18.5085 56.0291 16.7316 54.797C15.0471 53.629 14.0516 51.8486 14.0516 48.9236C14.0516 46.7731 14.9849 45.026 16.7974 43.5586C18.6487 42.0597 21.4042 40.8709 24.9431 39.9662C32.0154 38.1584 41.8212 37.5792 52.6451 37.5792C63.5054 37.5792 73.0656 37.8156 79.9018 39.4517C83.3158 40.2687 85.9313 41.4093 87.6795 42.9462C89.3827 44.4435 90.3153 46.3596 90.3153 48.9236Z" fill="white" stroke="black" stroke-width="2.21054"/>
<path d="M84.7889 30.3618C84.7889 31.9318 84.1592 33.0681 82.9371 33.9669C81.6527 34.9115 79.6929 35.6017 77.0712 36.076C71.8298 37.0244 64.4874 37.0266 56.0518 37.0266C47.6165 37.0266 40.2739 37.0224 35.0326 36.073C32.4109 35.5982 30.4509 34.9077 29.1664 33.9634C27.944 33.0647 27.3147 31.9293 27.3147 30.3618C27.3147 28.0581 28.0824 26.2462 29.4594 24.7807C30.8616 23.2884 32.9462 22.104 35.6428 21.1978C41.0512 19.3804 48.5855 18.7896 56.962 18.7896C65.2678 18.7896 72.3383 20.0044 77.2883 22.1224C82.2878 24.2617 84.7889 27.1499 84.7889 30.3618Z" fill="white" stroke="black" stroke-width="2.21054"/>
<path d="M72.6313 12.3348C72.6313 13.9973 72.1617 15.1304 71.3931 15.9554C70.5991 16.8075 69.3842 17.4404 67.7036 17.8842C64.3002 18.7829 59.4972 18.7896 53.8417 18.7896C48.1865 18.7896 43.3833 18.7809 39.98 17.8813C38.2993 17.437 37.0842 16.8039 36.2902 15.9519C35.5215 15.1271 35.052 13.995 35.052 12.3348C35.052 9.99914 35.5908 8.18769 36.5058 6.76646C37.4227 5.34224 38.7649 4.23634 40.4876 3.39145C43.9752 1.68102 48.8852 1.10524 54.4485 1.10524C59.9051 1.10524 64.5062 2.27005 67.7037 4.26691C70.874 6.24671 72.6313 9.00837 72.6313 12.3348Z" fill="white" stroke="black" stroke-width="2.21054"/>
</svg>
