<svg width="650" height="450" viewBox="0 0 650 450" fill="none" xmlns="http://www.w3.org/2000/svg">
<path d="M0 320.46C0 389.7 29.8395 404.027 59.415 436H573.949L606.593 392.207C629.55 361.409 620.049 317.432 586.424 298.86C559.683 284.089 547.285 252.343 556.94 223.359L568.138 189.743C580.494 152.651 571.422 111.769 544.538 83.3844L539.778 78.359C509.866 46.778 464.957 34.3024 423.042 45.9305L395.335 53.6168C363.691 62.3956 329.5 55.3911 303.684 35.0937C276.084 13.3933 238.985 7.19585 205.936 19.0482L154.067 37.6505C125.555 47.8756 111.952 80.3525 124.664 107.845C131.014 121.578 131.014 137.406 124.664 151.139L120.809 159.475C111.475 179.661 93.2715 194.348 71.5685 199.205L64.7577 200.729C45.2078 205.104 26.9937 215.814 18.132 233.781C3.2549 263.943 0 294.858 0 320.46Z" fill="url(#paint0_linear_1966_577)"/>
<path d="M225.933 320.433C216.546 329.736 218.154 348.739 222.93 355.44C226.297 361.557 241.376 370.143 252.369 368.659C287.817 364.46 294.418 312.738 294.382 305.425C268.664 300.461 237.666 308.805 225.933 320.433Z" fill="#AAC853"/>
<path d="M235.553 287.041C227.241 294.435 211.361 292.078 205.984 287.712C201.024 284.559 194.608 271.437 196.436 262.28C201.839 232.721 245.641 229.911 251.783 230.329C254.593 252.197 245.944 277.799 235.553 287.041Z" fill="#AAC853"/>
<path d="M195.019 215.83C189.278 221.825 177.327 221.02 173.067 218.094C169.19 216.045 163.635 206.668 164.449 199.749C166.703 177.443 199.113 172.74 203.705 172.684C207.1 188.78 202.195 208.337 195.019 215.83Z" fill="#AAC853"/>
<path d="M152.904 159.511C149.91 164.115 142.041 165.063 138.912 163.685C136.139 162.83 131.374 157.418 131.051 152.82C129.771 138.041 150.261 130.994 153.24 130.393C157.428 140.439 156.647 153.756 152.904 159.511Z" fill="#AAC853"/>
<path d="M211.004 322.712C222.661 328.937 226.564 347.605 223.908 355.392C222.433 362.217 210.445 374.763 199.487 376.489C164.322 382.619 143.184 334.954 141.124 327.937C164.343 315.816 196.432 314.932 211.004 322.712Z" fill="#AAC853"/>
<path d="M181.705 301.84C192.828 302.012 203.316 289.857 204.537 283.039C206.235 277.412 202.524 263.284 195.159 257.543C171.765 238.685 136.757 265.162 132.378 269.49C144.532 287.886 167.801 301.626 181.705 301.84Z" fill="#AAC853"/>
<path d="M158.365 231.961C166.645 232.538 174.95 223.906 176.134 218.876C177.627 214.752 175.433 204.077 170.178 199.502C153.511 184.507 126.36 202.819 122.923 205.866C131.234 220.063 148.014 231.239 158.365 231.961Z" fill="#AAC853"/>
<path d="M131.821 175.566C137.41 174.18 141.05 166.71 140.759 163.137C140.864 160.096 137.139 153.517 132.694 151.618C118.492 145.276 104.476 163.157 102.857 165.902C111.372 173.5 124.835 177.298 131.821 175.566Z" fill="#AAC853"/>
<path d="M120.492 113.347C123.762 118.572 121.005 127.03 118.122 129.563C115.94 131.981 108.177 134.272 103.344 132.425C87.6956 126.738 90.2151 102.548 91.0116 99.2314C103.219 99.7205 116.404 106.815 120.492 113.347Z" fill="#AAC853"/>
<path d="M250.028 408.919C237.74 315.805 166.673 162.352 98.5732 115.7C148.441 167.017 214.906 297.831 227.253 412.583C230.839 412.059 240.53 411.374 250.028 408.919Z" fill="#AAC853"/>
<path d="M483.584 325.694C490.81 332.855 489.572 347.483 485.896 352.641C483.304 357.349 471.696 363.958 463.235 362.816C435.948 359.584 430.867 319.77 430.895 314.141C450.692 310.32 474.553 316.743 483.584 325.694Z" fill="#AAC853"/>
<path d="M476.179 299.99C482.577 305.681 494.801 303.868 498.94 300.507C502.759 298.08 507.697 287.978 506.29 280.93C502.131 258.177 468.414 256.014 463.686 256.335C461.523 273.169 468.181 292.876 476.179 299.99Z" fill="#AAC853"/>
<path d="M507.38 245.175C511.799 249.79 520.999 249.17 524.278 246.917C527.262 245.34 531.538 238.122 530.912 232.796C529.177 215.626 504.229 212.006 500.694 211.963C498.081 224.353 501.857 239.407 507.38 245.175Z" fill="#AAC853"/>
<path d="M539.799 201.823C542.104 205.367 548.161 206.097 550.569 205.036C552.704 204.378 556.372 200.212 556.621 196.672C557.606 185.296 541.833 179.872 539.54 179.409C536.317 187.142 536.918 197.393 539.799 201.823Z" fill="#AAC853"/>
<path d="M495.076 327.448C486.102 332.24 483.099 346.609 485.143 352.604C486.278 357.857 495.506 367.514 503.941 368.843C531.01 373.562 547.281 336.872 548.866 331.47C530.994 322.139 506.293 321.459 495.076 327.448Z" fill="#AAC853"/>
<path d="M517.629 311.382C509.067 311.514 500.994 302.158 500.054 296.909C498.747 292.578 501.604 281.703 507.273 277.284C525.281 262.768 552.228 283.149 555.599 286.48C546.244 300.641 528.332 311.217 517.629 311.382Z" fill="#AAC853"/>
<path d="M535.596 257.591C529.222 258.036 522.83 251.391 521.918 247.519C520.769 244.345 522.457 236.127 526.502 232.606C539.332 221.064 560.232 235.159 562.878 237.505C556.48 248.433 543.563 257.036 535.596 257.591Z" fill="#AAC853"/>
<path d="M556.027 214.181C551.725 213.114 548.923 207.364 549.147 204.614C549.066 202.273 551.934 197.209 555.355 195.747C566.287 190.866 577.076 204.63 578.322 206.742C571.768 212.591 561.405 215.514 556.027 214.181Z" fill="#AAC853"/>
<path d="M564.748 166.288C562.231 170.31 564.353 176.82 566.573 178.77C568.252 180.632 574.227 182.395 577.948 180.973C589.993 176.596 588.054 157.975 587.441 155.422C578.044 155.799 567.894 161.26 564.748 166.288Z" fill="#AAC853"/>
<path d="M465.036 393.806C474.495 322.131 529.199 204.01 581.62 168.099C543.234 207.601 492.072 308.296 482.568 396.627C479.807 396.223 472.348 395.696 465.036 393.806Z" fill="#AAC853"/>
<path d="M394.576 194.706L392.584 203.001L395.573 211.814L388.1 239.289L363.689 236.179C359.206 234.624 350.238 228.403 350.238 215.961C350.238 203.519 369.501 201.1 379.133 201.446C377.97 195.57 377.837 182.264 386.605 176.043C397.565 168.267 418.987 175.007 425.962 185.893C431.541 194.603 424.633 196.434 420.482 196.261C415.334 194.879 404.141 191.803 400.554 190.559C396.968 189.315 395.074 192.805 394.576 194.706Z" fill="#EA8181"/>
<path d="M387.602 220.108L376.642 235.142L375.147 243.955L398.562 260.026L404.042 246.547L402.547 226.848C404.374 228.057 407.529 229.647 413.507 228.403C419.349 227.187 419.958 204.425 419.518 192.421C419.5 191.94 419.138 191.548 418.66 191.483L400.555 189.004L398.76 189.107C394.403 189.359 390.609 192.168 389.096 196.261L387.602 220.108Z" fill="#A96161"/>
<path d="M468.806 379.778L450.871 364.226L459.34 350.747L468.806 367.336C468.806 366.299 470.3 364.226 476.278 364.226C482.256 364.226 492.552 373.903 497.7 377.704L468.806 379.778Z" fill="#A96161"/>
<path d="M367.674 229.439C377.638 229.854 387.103 241.363 390.591 247.065C395.176 253.286 396.569 252.768 398.562 252.768C400.554 252.768 401.052 243.437 403.543 240.844C416.496 239.808 423.471 272.467 426.46 285.946C429.249 309.171 452.531 338.478 463.823 350.229C461.498 353.685 455.753 361.945 451.369 367.336C418.489 352.302 406.532 319.124 403.543 313.422C401.152 308.86 400.72 311.521 400.056 313.422L396.569 395.849H295.438C298.428 381.506 305.801 346.6 311.38 321.716C331.806 229.44 355.22 228.921 367.674 229.439Z" fill="#F6F6F6"/>
<path d="M107.127 409.327C112.607 407.772 169.898 397.058 194.807 392.738V422.288L68.269 422.806C67.9369 420.905 68.7672 417 74.7453 416.585C82.218 416.067 93.6762 402.588 99.1562 402.588C104.636 402.588 102.643 408.291 107.127 409.327Z" fill="#FAABB1"/>
<path d="M419.983 383.407L402.049 367.855L410.518 354.376L419.983 370.965C419.983 369.928 421.478 367.855 427.456 367.855C433.434 367.855 445.224 375.458 450.372 379.26L419.983 383.407Z" fill="#A96161"/>
<path d="M476.278 373.752C455.853 374.763 429.449 383.864 411.017 381.336V422.288H507.663V408.131C507.663 406.109 515.634 407.289 519.62 408.131C518.623 411.502 517.826 418.445 522.609 419.254C533.768 422.49 551.835 416.221 559.474 412.682L549.012 384.875L533.569 382.853C526.262 385.549 510.852 390.133 507.663 386.897C500.888 374.359 483.917 372.91 476.278 373.752Z" fill="#FAABB1"/>
<path d="M545.524 372.52C538.57 373.077 522.608 383.407 512.645 385.999C513.641 390.146 518.125 391.701 520.117 391.183C521.646 390.785 529.084 389.109 534.564 387.554C540.044 385.999 548.513 395.33 548.513 403.625C549.51 416.067 556.982 418.881 561.964 418.14C566.946 417.4 568.939 411.919 567.942 398.441C566.448 369.41 552.001 372.002 545.524 372.52Z" fill="black"/>
<path d="M402.959 370.447L415.998 353.851C406.581 346.984 385.899 330.96 378.511 321.804C371.122 312.647 370.723 291.664 371.448 282.317L344.283 289.184C344.102 295.098 344.935 311.617 349.716 330.388C354.497 349.158 387.203 364.915 402.959 370.447Z" fill="url(#paint1_linear_1966_577)"/>
<rect x="40.3711" y="422.288" width="548.993" height="26.9573" rx="13.4786" fill="#F19450"/>
<path d="M189.825 422.288C187.432 407.714 190.649 394.853 192.643 390.467C234.855 388.443 321.173 382.371 328.751 374.275C350.688 360.612 382.097 370.733 386.086 374.275C389.277 377.108 406.028 378.829 414.005 379.335V422.288C341.88 422.625 196.206 423.097 189.825 422.288Z" fill="white"/>
<defs>
<linearGradient id="paint0_linear_1966_577" x1="-135.5" y1="337" x2="737.72" y2="182.871" gradientUnits="userSpaceOnUse">
<stop stop-color="#45DEF2"/>
<stop offset="1" stop-color="#4CF0C9"/>
</linearGradient>
<linearGradient id="paint1_linear_1966_577" x1="353.726" y1="279.725" x2="426.701" y2="361.875" gradientUnits="userSpaceOnUse">
<stop stop-color="#F6F6F6"/>
<stop offset="0.973978" stop-color="#E6E6E6"/>
</linearGradient>
</defs>
</svg>
