<svg width="37" height="38" viewBox="0 0 37 38" fill="none" xmlns="http://www.w3.org/2000/svg">
<path fill-rule="evenodd" clip-rule="evenodd" d="M11.177 15.9167C11.177 11.8724 14.4556 8.59379 18.5 8.59379C22.5443 8.59379 25.8229 11.8724 25.8229 15.9167C25.8229 19.961 22.5443 23.2396 18.5 23.2396C14.4556 23.2396 11.177 19.961 11.177 15.9167ZM18.5 10.9063C15.7328 10.9063 13.4895 13.1495 13.4895 15.9167C13.4895 18.6839 15.7328 20.9271 18.5 20.9271C21.2671 20.9271 23.5104 18.6839 23.5104 15.9167C23.5104 13.1495 21.2671 10.9063 18.5 10.9063Z" fill="#8B8B8B"/>
<path fill-rule="evenodd" clip-rule="evenodd" d="M5.43335 14.1544C5.97961 7.52733 11.5175 2.42712 18.167 2.42712H18.8329C25.4824 2.42712 31.0203 7.52733 31.5666 14.1544C31.86 17.7143 30.7604 21.2492 28.4993 24.0144L21.11 33.0513C19.761 34.7011 17.2389 34.7011 15.89 33.0513L8.50065 24.0144C6.23955 21.2492 5.13991 17.7143 5.43335 14.1544ZM18.167 4.73962C12.721 4.73962 8.18542 8.91674 7.73803 14.3443C7.49381 17.3072 8.40902 20.2492 10.2909 22.5506L17.6802 31.5875C18.1039 32.1057 18.896 32.1057 19.3197 31.5875L26.7091 22.5506C28.5909 20.2491 29.5061 17.3072 29.2619 14.3443C28.8145 8.91673 24.2789 4.73962 18.8329 4.73962H18.167Z" fill="#8B8B8B"/>
</svg>
