<svg width="96" height="98" viewBox="0 0 96 98" fill="none" xmlns="http://www.w3.org/2000/svg">
<path d="M24.604 67.2951C21.8443 68.4288 18.2821 69.781 15.5099 70.8106C14.5906 71.152 14.8043 72.6077 15.7834 72.6636L28.3794 73.3834C31.501 73.5618 34.1073 71.0318 34.0217 67.9062L33.646 54.1937C33.6193 53.2192 32.2708 52.9907 31.9245 53.902L28.3038 63.4301C27.6419 65.1718 26.3274 66.5871 24.604 67.2951Z" fill="white" stroke="black" stroke-width="1.77988"/>
<path d="M48.0001 1.00001C45.0389 1.00001 39.4702 1.92985 39.4702 10.6162C39.4702 17.5257 41.1153 18.8418 43.0895 20.1579C44.4056 21.474 43.7475 23.7772 37.825 26.0804C31.9026 28.3836 24.3349 30.6868 24.664 38.9125C24.993 47.1381 23.6768 54.7057 21.0446 57.0089C18.9388 58.8515 12.4899 64.7959 9.52866 67.5378L3.9352 71.8151C2.94812 72.8022 1.03977 75.7635 1.30299 79.7118C1.63201 84.6472 2.61901 87.6084 21.0446 93.8599C31.2445 97.1502 36.8132 96.0887 48.0001 96.0887" stroke="black" stroke-width="1.77988"/>
<path d="M71.3965 67.2951C74.1562 68.4288 77.7184 69.781 80.4906 70.8106C81.4099 71.152 81.1962 72.6077 80.2171 72.6636L67.6211 73.3834C64.4995 73.5618 61.8932 71.0318 61.9788 67.9062L62.3545 54.1937C62.3812 53.2192 63.7297 52.9907 64.076 53.902L67.6967 63.4301C68.3586 65.1718 69.6731 66.5871 71.3965 67.2951Z" fill="white" stroke="black" stroke-width="1.77988"/>
<path d="M48.0004 1.00001C50.9616 1.00001 56.5303 1.92985 56.5303 10.6162C56.5303 17.5257 54.8852 18.8418 52.911 20.1579C51.5949 21.474 52.253 23.7772 58.1754 26.0804C64.0979 28.3836 71.6655 30.6868 71.3365 38.9125C71.0075 47.1381 72.3237 54.7057 74.9559 57.0089C77.0617 58.8515 83.5106 64.7959 86.4718 67.5378L92.0653 71.8151C93.0524 72.8022 94.9607 75.7635 94.6975 79.7118C94.3685 84.6472 93.3815 87.6084 74.9559 93.8599C64.756 97.1502 59.0626 96.0887 47.8757 96.0887" stroke="black" stroke-width="1.77988"/>
</svg>
