<svg width="197" height="123" viewBox="0 0 197 123" fill="none" xmlns="http://www.w3.org/2000/svg">
<rect width="197" height="123" rx="10" fill="url(#paint0_linear_2110_473)"/>
<path d="M16.145 60.605C16.145 61.475 15.845 62.2 15.245 62.78C14.655 63.35 13.75 63.635 12.53 63.635H10.52V68H9.155V57.545H12.53C13.71 57.545 14.605 57.83 15.215 58.4C15.835 58.97 16.145 59.705 16.145 60.605ZM12.53 62.51C13.29 62.51 13.85 62.345 14.21 62.015C14.57 61.685 14.75 61.215 14.75 60.605C14.75 59.315 14.01 58.67 12.53 58.67H10.52V62.51H12.53ZM26.0915 63.575C26.0915 63.835 26.0765 64.11 26.0465 64.4H19.4765C19.5265 65.21 19.8015 65.845 20.3015 66.305C20.8115 66.755 21.4265 66.98 22.1465 66.98C22.7365 66.98 23.2265 66.845 23.6165 66.575C24.0165 66.295 24.2965 65.925 24.4565 65.465H25.9265C25.7065 66.255 25.2665 66.9 24.6065 67.4C23.9465 67.89 23.1265 68.135 22.1465 68.135C21.3665 68.135 20.6665 67.96 20.0465 67.61C19.4365 67.26 18.9565 66.765 18.6065 66.125C18.2565 65.475 18.0815 64.725 18.0815 63.875C18.0815 63.025 18.2515 62.28 18.5915 61.64C18.9315 61 19.4065 60.51 20.0165 60.17C20.6365 59.82 21.3465 59.645 22.1465 59.645C22.9265 59.645 23.6165 59.815 24.2165 60.155C24.8165 60.495 25.2765 60.965 25.5965 61.565C25.9265 62.155 26.0915 62.825 26.0915 63.575ZM24.6815 63.29C24.6815 62.77 24.5665 62.325 24.3365 61.955C24.1065 61.575 23.7915 61.29 23.3915 61.1C23.0015 60.9 22.5665 60.8 22.0865 60.8C21.3965 60.8 20.8065 61.02 20.3165 61.46C19.8365 61.9 19.5615 62.51 19.4915 63.29H24.6815ZM32.6483 59.63C33.6483 59.63 34.4583 59.935 35.0783 60.545C35.6983 61.145 36.0083 62.015 36.0083 63.155V68H34.6583V63.35C34.6583 62.53 34.4533 61.905 34.0433 61.475C33.6333 61.035 33.0733 60.815 32.3633 60.815C31.6433 60.815 31.0683 61.04 30.6383 61.49C30.2183 61.94 30.0083 62.595 30.0083 63.455V68H28.6433V59.78H30.0083V60.95C30.2783 60.53 30.6433 60.205 31.1033 59.975C31.5733 59.745 32.0883 59.63 32.6483 59.63ZM42.378 59.645C43.088 59.645 43.708 59.8 44.238 60.11C44.778 60.42 45.178 60.81 45.438 61.28V59.78H46.818V68.18C46.818 68.93 46.658 69.595 46.338 70.175C46.018 70.765 45.558 71.225 44.958 71.555C44.368 71.885 43.678 72.05 42.888 72.05C41.808 72.05 40.908 71.795 40.188 71.285C39.468 70.775 39.043 70.08 38.913 69.2H40.263C40.413 69.7 40.723 70.1 41.193 70.4C41.663 70.71 42.228 70.865 42.888 70.865C43.638 70.865 44.248 70.63 44.718 70.16C45.198 69.69 45.438 69.03 45.438 68.18V66.455C45.168 66.935 44.768 67.335 44.238 67.655C43.708 67.975 43.088 68.135 42.378 68.135C41.648 68.135 40.983 67.955 40.383 67.595C39.793 67.235 39.328 66.73 38.988 66.08C38.648 65.43 38.478 64.69 38.478 63.86C38.478 63.02 38.648 62.285 38.988 61.655C39.328 61.015 39.793 60.52 40.383 60.17C40.983 59.82 41.648 59.645 42.378 59.645ZM45.438 63.875C45.438 63.255 45.313 62.715 45.063 62.255C44.813 61.795 44.473 61.445 44.043 61.205C43.623 60.955 43.158 60.83 42.648 60.83C42.138 60.83 41.673 60.95 41.253 61.19C40.833 61.43 40.498 61.78 40.248 62.24C39.998 62.7 39.873 63.24 39.873 63.86C39.873 64.49 39.998 65.04 40.248 65.51C40.498 65.97 40.833 66.325 41.253 66.575C41.673 66.815 42.138 66.935 42.648 66.935C43.158 66.935 43.623 66.815 44.043 66.575C44.473 66.325 44.813 65.97 45.063 65.51C45.313 65.04 45.438 64.495 45.438 63.875ZM53.2647 59.645C53.9747 59.645 54.5947 59.8 55.1247 60.11C55.6647 60.42 56.0647 60.81 56.3247 61.28V59.78H57.7047V68.18C57.7047 68.93 57.5447 69.595 57.2247 70.175C56.9047 70.765 56.4447 71.225 55.8447 71.555C55.2547 71.885 54.5647 72.05 53.7747 72.05C52.6947 72.05 51.7947 71.795 51.0747 71.285C50.3547 70.775 49.9297 70.08 49.7997 69.2H51.1497C51.2997 69.7 51.6097 70.1 52.0797 70.4C52.5497 70.71 53.1147 70.865 53.7747 70.865C54.5247 70.865 55.1347 70.63 55.6047 70.16C56.0847 69.69 56.3247 69.03 56.3247 68.18V66.455C56.0547 66.935 55.6547 67.335 55.1247 67.655C54.5947 67.975 53.9747 68.135 53.2647 68.135C52.5347 68.135 51.8697 67.955 51.2697 67.595C50.6797 67.235 50.2147 66.73 49.8747 66.08C49.5347 65.43 49.3647 64.69 49.3647 63.86C49.3647 63.02 49.5347 62.285 49.8747 61.655C50.2147 61.015 50.6797 60.52 51.2697 60.17C51.8697 59.82 52.5347 59.645 53.2647 59.645ZM56.3247 63.875C56.3247 63.255 56.1997 62.715 55.9497 62.255C55.6997 61.795 55.3597 61.445 54.9297 61.205C54.5097 60.955 54.0447 60.83 53.5347 60.83C53.0247 60.83 52.5597 60.95 52.1397 61.19C51.7197 61.43 51.3847 61.78 51.1347 62.24C50.8847 62.7 50.7597 63.24 50.7597 63.86C50.7597 64.49 50.8847 65.04 51.1347 65.51C51.3847 65.97 51.7197 66.325 52.1397 66.575C52.5597 66.815 53.0247 66.935 53.5347 66.935C54.0447 66.935 54.5097 66.815 54.9297 66.575C55.3597 66.325 55.6997 65.97 55.9497 65.51C56.1997 65.04 56.3247 64.495 56.3247 63.875ZM68.0514 59.78V68H66.6864V66.785C66.4264 67.205 66.0614 67.535 65.5914 67.775C65.1314 68.005 64.6214 68.12 64.0614 68.12C63.4214 68.12 62.8464 67.99 62.3364 67.73C61.8264 67.46 61.4214 67.06 61.1214 66.53C60.8314 66 60.6864 65.355 60.6864 64.595V59.78H62.0364V64.415C62.0364 65.225 62.2414 65.85 62.6514 66.29C63.0614 66.72 63.6214 66.935 64.3314 66.935C65.0614 66.935 65.6364 66.71 66.0564 66.26C66.4764 65.81 66.6864 65.155 66.6864 64.295V59.78H68.0514ZM75.1112 59.63C76.1112 59.63 76.9212 59.935 77.5412 60.545C78.1612 61.145 78.4712 62.015 78.4712 63.155V68H77.1212V63.35C77.1212 62.53 76.9162 61.905 76.5062 61.475C76.0962 61.035 75.5362 60.815 74.8262 60.815C74.1062 60.815 73.5312 61.04 73.1012 61.49C72.6812 61.94 72.4712 62.595 72.4712 63.455V68H71.1062V59.78H72.4712V60.95C72.7412 60.53 73.1062 60.205 73.5662 59.975C74.0362 59.745 74.5512 59.63 75.1112 59.63ZM80.9409 63.86C80.9409 63.02 81.1109 62.285 81.4509 61.655C81.7909 61.015 82.2559 60.52 82.8459 60.17C83.4459 59.82 84.1109 59.645 84.8409 59.645C85.5609 59.645 86.1859 59.8 86.7159 60.11C87.2459 60.42 87.6409 60.81 87.9009 61.28V59.78H89.2809V68H87.9009V66.47C87.6309 66.95 87.2259 67.35 86.6859 67.67C86.1559 67.98 85.5359 68.135 84.8259 68.135C84.0959 68.135 83.4359 67.955 82.8459 67.595C82.2559 67.235 81.7909 66.73 81.4509 66.08C81.1109 65.43 80.9409 64.69 80.9409 63.86ZM87.9009 63.875C87.9009 63.255 87.7759 62.715 87.5259 62.255C87.2759 61.795 86.9359 61.445 86.5059 61.205C86.0859 60.955 85.6209 60.83 85.1109 60.83C84.6009 60.83 84.1359 60.95 83.7159 61.19C83.2959 61.43 82.9609 61.78 82.7109 62.24C82.4609 62.7 82.3359 63.24 82.3359 63.86C82.3359 64.49 82.4609 65.04 82.7109 65.51C82.9609 65.97 83.2959 66.325 83.7159 66.575C84.1359 66.815 84.6009 66.935 85.1109 66.935C85.6209 66.935 86.0859 66.815 86.5059 66.575C86.9359 66.325 87.2759 65.97 87.5259 65.51C87.7759 65.04 87.9009 64.495 87.9009 63.875ZM96.5766 63.86C96.5766 63.02 96.7466 62.285 97.0866 61.655C97.4266 61.015 97.8916 60.52 98.4816 60.17C99.0816 59.82 99.7466 59.645 100.477 59.645C101.197 59.645 101.822 59.8 102.352 60.11C102.882 60.42 103.277 60.81 103.537 61.28V59.78H104.917V68H103.537V66.47C103.267 66.95 102.862 67.35 102.322 67.67C101.792 67.98 101.172 68.135 100.462 68.135C99.7316 68.135 99.0716 67.955 98.4816 67.595C97.8916 67.235 97.4266 66.73 97.0866 66.08C96.7466 65.43 96.5766 64.69 96.5766 63.86ZM103.537 63.875C103.537 63.255 103.412 62.715 103.162 62.255C102.912 61.795 102.572 61.445 102.142 61.205C101.722 60.955 101.257 60.83 100.747 60.83C100.237 60.83 99.7716 60.95 99.3516 61.19C98.9316 61.43 98.5966 61.78 98.3466 62.24C98.0966 62.7 97.9716 63.24 97.9716 63.86C97.9716 64.49 98.0966 65.04 98.3466 65.51C98.5966 65.97 98.9316 66.325 99.3516 66.575C99.7716 66.815 100.237 66.935 100.747 66.935C101.257 66.935 101.722 66.815 102.142 66.575C102.572 66.325 102.912 65.97 103.162 65.51C103.412 65.04 103.537 64.495 103.537 63.875ZM112.563 68L109.338 64.37V68H107.973V56.9H109.338V63.425L112.503 59.78H114.408L110.538 63.875L114.423 68H112.563ZM118.108 60.905V65.75C118.108 66.15 118.193 66.435 118.363 66.605C118.533 66.765 118.828 66.845 119.248 66.845H120.253V68H119.023C118.263 68 117.693 67.825 117.313 67.475C116.933 67.125 116.743 66.55 116.743 65.75V60.905H115.678V59.78H116.743V57.71H118.108V59.78H120.253V60.905H118.108ZM123.362 58.445C123.102 58.445 122.882 58.355 122.702 58.175C122.522 57.995 122.432 57.775 122.432 57.515C122.432 57.255 122.522 57.035 122.702 56.855C122.882 56.675 123.102 56.585 123.362 56.585C123.612 56.585 123.822 56.675 123.992 56.855C124.172 57.035 124.262 57.255 124.262 57.515C124.262 57.775 124.172 57.995 123.992 58.175C123.822 58.355 123.612 58.445 123.362 58.445ZM124.022 59.78V68H122.657V59.78H124.022ZM130.443 60.905H128.718V68H127.353V60.905H126.288V59.78H127.353V59.195C127.353 58.275 127.588 57.605 128.058 57.185C128.538 56.755 129.303 56.54 130.353 56.54V57.68C129.753 57.68 129.328 57.8 129.078 58.04C128.838 58.27 128.718 58.655 128.718 59.195V59.78H130.443V60.905Z" fill="white"/>
<path d="M11.104 103.944C13.152 102.237 14.784 100.819 16 99.688C17.216 98.536 18.2293 97.3413 19.04 96.104C19.8507 94.8667 20.256 93.6507 20.256 92.456C20.256 91.368 20 90.5147 19.488 89.896C18.976 89.2773 18.1867 88.968 17.12 88.968C16.0533 88.968 15.232 89.3307 14.656 90.056C14.08 90.76 13.7813 91.7307 13.76 92.968H9.408C9.49333 90.408 10.2507 88.4667 11.68 87.144C13.1307 85.8213 14.9653 85.16 17.184 85.16C19.616 85.16 21.4827 85.8107 22.784 87.112C24.0853 88.392 24.736 90.088 24.736 92.2C24.736 93.864 24.288 95.4533 23.392 96.968C22.496 98.4827 21.472 99.8053 20.32 100.936C19.168 102.045 17.664 103.389 15.808 104.968H25.248V108.68H9.44V105.352L11.104 103.944ZM29.735 91.816C29.8417 89.6827 30.5883 88.04 31.975 86.888C33.383 85.7147 35.2283 85.128 37.511 85.128C39.0683 85.128 40.4017 85.4053 41.511 85.96C42.6203 86.4933 43.4523 87.2293 44.007 88.168C44.583 89.0853 44.871 90.1307 44.871 91.304C44.871 92.648 44.519 93.7893 43.815 94.728C43.1323 95.6453 42.311 96.264 41.351 96.584V96.712C42.5883 97.096 43.5483 97.7787 44.231 98.76C44.935 99.7413 45.287 101 45.287 102.536C45.287 103.816 44.9883 104.957 44.391 105.96C43.815 106.963 42.951 107.752 41.799 108.328C40.6683 108.883 39.303 109.16 37.703 109.16C35.2923 109.16 33.3297 108.552 31.815 107.336C30.3003 106.12 29.5003 104.328 29.415 101.96H33.767C33.8097 103.005 34.1617 103.848 34.823 104.488C35.5057 105.107 36.4337 105.416 37.607 105.416C38.695 105.416 39.527 105.117 40.103 104.52C40.7003 103.901 40.999 103.112 40.999 102.152C40.999 100.872 40.5937 99.9547 39.783 99.4C38.9723 98.8453 37.7137 98.568 36.007 98.568H35.079V94.888H36.007C39.0363 94.888 40.551 93.8747 40.551 91.848C40.551 90.9307 40.2737 90.216 39.719 89.704C39.1857 89.192 38.407 88.936 37.383 88.936C36.3803 88.936 35.6017 89.2133 35.047 89.768C34.5137 90.3013 34.2043 90.984 34.119 91.816H29.735ZM49.8833 89.8V85.672H57.5953V109H52.9873V89.8H49.8833Z" fill="white"/>
<path d="M32 16.875C28.203 16.875 25.125 19.953 25.125 23.75C25.125 27.547 28.203 30.625 32 30.625C35.797 30.625 38.875 27.547 38.875 23.75C38.875 19.953 35.797 16.875 32 16.875Z" fill="white"/>
<path d="M24.6667 34.2917C20.8697 34.2917 17.7917 37.3697 17.7917 41.1667V43.3452C17.7917 44.7261 18.7925 45.9035 20.1553 46.1261C27.9998 47.4068 36.0001 47.4068 43.8447 46.1261C45.2075 45.9035 46.2083 44.7261 46.2083 43.3452V41.1667C46.2083 37.3697 43.1303 34.2917 39.3333 34.2917H38.7084C38.3702 34.2917 38.0341 34.3452 37.7125 34.4501L36.1258 34.9683C33.4449 35.8437 30.5551 35.8437 27.8742 34.9683L26.2875 34.4501C25.9659 34.3452 25.6298 34.2917 25.2916 34.2917H24.6667Z" fill="white"/>
<defs>
<linearGradient id="paint0_linear_2110_473" x1="213" y1="-15" x2="-6.5" y2="135" gradientUnits="userSpaceOnUse">
<stop stop-color="#C2E2FF"/>
<stop offset="1" stop-color="#4CA2F2"/>
</linearGradient>
</defs>
</svg>
