<svg width="40" height="40" viewBox="0 0 40 40" fill="none" xmlns="http://www.w3.org/2000/svg">
<path fill-rule="evenodd" clip-rule="evenodd" d="M18.6645 4.31201C19.495 3.85059 20.505 3.85059 21.3355 4.31201L33.3355 10.9787C34.2085 11.4637 34.75 12.3839 34.75 13.3826V26.6174C34.75 27.6161 34.2085 28.5363 33.3355 29.0213L21.3355 35.688C20.505 36.1494 19.495 36.1494 18.6645 35.688L6.66448 29.0213C5.79145 28.5363 5.25 27.6161 5.25 26.6174V13.3826C5.25 12.3839 5.79145 11.4637 6.66448 10.9787L18.6645 4.31201ZM20.1214 6.4974C20.0459 6.45546 19.9541 6.45546 19.8786 6.4974L7.87859 13.1641C7.79922 13.2082 7.75 13.2918 7.75 13.3826V26.6174C7.75 26.7082 7.79922 26.7918 7.87859 26.8359L19.8786 33.5026C19.9541 33.5446 20.0459 33.5446 20.1214 33.5026L32.1214 26.8359C32.2008 26.7918 32.25 26.7082 32.25 26.6174V13.3826C32.25 13.2918 32.2008 13.2082 32.1214 13.1641L20.1214 6.4974Z" fill="black"/>
<path fill-rule="evenodd" clip-rule="evenodd" d="M12.0833 20C12.0833 15.6277 15.6277 12.0833 20 12.0833C24.3723 12.0833 27.9167 15.6277 27.9167 20C27.9167 24.3723 24.3723 27.9167 20 27.9167C15.6277 27.9167 12.0833 24.3723 12.0833 20ZM20 14.5833C17.0085 14.5833 14.5833 17.0085 14.5833 20C14.5833 22.9915 17.0085 25.4167 20 25.4167C22.9915 25.4167 25.4167 22.9915 25.4167 20C25.4167 17.0085 22.9915 14.5833 20 14.5833Z" fill="black"/>
</svg>
